# AUTO-GENERATED by tools/make-checkpoint-model.mjs — edit the script, not this file.
# Y up (OBJ convention): ModelDoc turns (x, y, z) into Source (z, x, y), so this is Source (y, z, x).
o checkpoint_gate_mesh
v -32.4 3.6 -4.8
v -32.4 3.6 4.8
v -28.8 3.6 8.4
v -19.2 3.6 8.4
v -15.6 3.6 4.8
v -15.6 3.6 -4.8
v -19.2 3.6 -8.4
v -28.8 3.6 -8.4
v -32.4 0 -4.8
v -32.4 0 4.8
v -28.8 0 8.4
v -19.2 0 8.4
v -15.6 0 4.8
v -15.6 0 -4.8
v -19.2 0 -8.4
v -28.8 0 -8.4
v -32.4 3.6 -4.8
v -32.4 0 -4.8
v -32.4 3.6 4.8
v -32.4 0 4.8
v -32.4 3.6 4.8
v -32.4 0 4.8
v -28.8 3.6 8.4
v -28.8 0 8.4
v -28.8 3.6 8.4
v -28.8 0 8.4
v -19.2 3.6 8.4
v -19.2 0 8.4
v -19.2 3.6 8.4
v -19.2 0 8.4
v -15.6 3.6 4.8
v -15.6 0 4.8
v -15.6 3.6 4.8
v -15.6 0 4.8
v -15.6 3.6 -4.8
v -15.6 0 -4.8
v -15.6 3.6 -4.8
v -15.6 0 -4.8
v -19.2 3.6 -8.4
v -19.2 0 -8.4
v -19.2 3.6 -8.4
v -19.2 0 -8.4
v -28.8 3.6 -8.4
v -28.8 0 -8.4
v -28.8 3.6 -8.4
v -28.8 0 -8.4
v -32.4 3.6 -4.8
v -32.4 0 -4.8
v -30.6 6 -3.6
v -30.6 6 3.6
v -27.6 6 6.6
v -20.4 6 6.6
v -17.4 6 3.6
v -17.4 6 -3.6
v -20.4 6 -6.6
v -27.6 6 -6.6
v -30.6 3.6 -3.6
v -30.6 3.6 3.6
v -27.6 3.6 6.6
v -20.4 3.6 6.6
v -17.4 3.6 3.6
v -17.4 3.6 -3.6
v -20.4 3.6 -6.6
v -27.6 3.6 -6.6
v -30.6 6 -3.6
v -30.6 3.6 -3.6
v -30.6 6 3.6
v -30.6 3.6 3.6
v -30.6 6 3.6
v -30.6 3.6 3.6
v -27.6 6 6.6
v -27.6 3.6 6.6
v -27.6 6 6.6
v -27.6 3.6 6.6
v -20.4 6 6.6
v -20.4 3.6 6.6
v -20.4 6 6.6
v -20.4 3.6 6.6
v -17.4 6 3.6
v -17.4 3.6 3.6
v -17.4 6 3.6
v -17.4 3.6 3.6
v -17.4 6 -3.6
v -17.4 3.6 -3.6
v -17.4 6 -3.6
v -17.4 3.6 -3.6
v -20.4 6 -6.6
v -20.4 3.6 -6.6
v -20.4 6 -6.6
v -20.4 3.6 -6.6
v -27.6 6 -6.6
v -27.6 3.6 -6.6
v -27.6 6 -6.6
v -27.6 3.6 -6.6
v -30.6 6 -3.6
v -30.6 3.6 -3.6
v -28.2 81.6 -2.4
v -28.2 81.6 2.4
v -26.4 81.6 4.2
v -21.6 81.6 4.2
v -19.8 81.6 2.4
v -19.8 81.6 -2.4
v -21.6 81.6 -4.2
v -26.4 81.6 -4.2
v -28.2 6 -2.4
v -28.2 6 2.4
v -26.4 6 4.2
v -21.6 6 4.2
v -19.8 6 2.4
v -19.8 6 -2.4
v -21.6 6 -4.2
v -26.4 6 -4.2
v -28.2 81.6 -2.4
v -28.2 6 -2.4
v -28.2 81.6 2.4
v -28.2 6 2.4
v -28.2 81.6 2.4
v -28.2 6 2.4
v -26.4 81.6 4.2
v -26.4 6 4.2
v -26.4 81.6 4.2
v -26.4 6 4.2
v -21.6 81.6 4.2
v -21.6 6 4.2
v -21.6 81.6 4.2
v -21.6 6 4.2
v -19.8 81.6 2.4
v -19.8 6 2.4
v -19.8 81.6 2.4
v -19.8 6 2.4
v -19.8 81.6 -2.4
v -19.8 6 -2.4
v -19.8 81.6 -2.4
v -19.8 6 -2.4
v -21.6 81.6 -4.2
v -21.6 6 -4.2
v -21.6 81.6 -4.2
v -21.6 6 -4.2
v -26.4 81.6 -4.2
v -26.4 6 -4.2
v -26.4 81.6 -4.2
v -26.4 6 -4.2
v -28.2 81.6 -2.4
v -28.2 6 -2.4
v -30.6 84 -3.6
v -30.6 84 3.6
v -27.6 84 6.6
v -20.4 84 6.6
v -17.4 84 3.6
v -17.4 84 -3.6
v -20.4 84 -6.6
v -27.6 84 -6.6
v -30.6 81.6 -3.6
v -30.6 81.6 3.6
v -27.6 81.6 6.6
v -20.4 81.6 6.6
v -17.4 81.6 3.6
v -17.4 81.6 -3.6
v -20.4 81.6 -6.6
v -27.6 81.6 -6.6
v -30.6 84 -3.6
v -30.6 81.6 -3.6
v -30.6 84 3.6
v -30.6 81.6 3.6
v -30.6 84 3.6
v -30.6 81.6 3.6
v -27.6 84 6.6
v -27.6 81.6 6.6
v -27.6 84 6.6
v -27.6 81.6 6.6
v -20.4 84 6.6
v -20.4 81.6 6.6
v -20.4 84 6.6
v -20.4 81.6 6.6
v -17.4 84 3.6
v -17.4 81.6 3.6
v -17.4 84 3.6
v -17.4 81.6 3.6
v -17.4 84 -3.6
v -17.4 81.6 -3.6
v -17.4 84 -3.6
v -17.4 81.6 -3.6
v -20.4 84 -6.6
v -20.4 81.6 -6.6
v -20.4 84 -6.6
v -20.4 81.6 -6.6
v -27.6 84 -6.6
v -27.6 81.6 -6.6
v -27.6 84 -6.6
v -27.6 81.6 -6.6
v -30.6 84 -3.6
v -30.6 81.6 -3.6
v 15.6 3.6 -4.8
v 15.6 3.6 4.8
v 19.2 3.6 8.4
v 28.8 3.6 8.4
v 32.4 3.6 4.8
v 32.4 3.6 -4.8
v 28.8 3.6 -8.4
v 19.2 3.6 -8.4
v 15.6 0 -4.8
v 15.6 0 4.8
v 19.2 0 8.4
v 28.8 0 8.4
v 32.4 0 4.8
v 32.4 0 -4.8
v 28.8 0 -8.4
v 19.2 0 -8.4
v 15.6 3.6 -4.8
v 15.6 0 -4.8
v 15.6 3.6 4.8
v 15.6 0 4.8
v 15.6 3.6 4.8
v 15.6 0 4.8
v 19.2 3.6 8.4
v 19.2 0 8.4
v 19.2 3.6 8.4
v 19.2 0 8.4
v 28.8 3.6 8.4
v 28.8 0 8.4
v 28.8 3.6 8.4
v 28.8 0 8.4
v 32.4 3.6 4.8
v 32.4 0 4.8
v 32.4 3.6 4.8
v 32.4 0 4.8
v 32.4 3.6 -4.8
v 32.4 0 -4.8
v 32.4 3.6 -4.8
v 32.4 0 -4.8
v 28.8 3.6 -8.4
v 28.8 0 -8.4
v 28.8 3.6 -8.4
v 28.8 0 -8.4
v 19.2 3.6 -8.4
v 19.2 0 -8.4
v 19.2 3.6 -8.4
v 19.2 0 -8.4
v 15.6 3.6 -4.8
v 15.6 0 -4.8
v 17.4 6 -3.6
v 17.4 6 3.6
v 20.4 6 6.6
v 27.6 6 6.6
v 30.6 6 3.6
v 30.6 6 -3.6
v 27.6 6 -6.6
v 20.4 6 -6.6
v 17.4 3.6 -3.6
v 17.4 3.6 3.6
v 20.4 3.6 6.6
v 27.6 3.6 6.6
v 30.6 3.6 3.6
v 30.6 3.6 -3.6
v 27.6 3.6 -6.6
v 20.4 3.6 -6.6
v 17.4 6 -3.6
v 17.4 3.6 -3.6
v 17.4 6 3.6
v 17.4 3.6 3.6
v 17.4 6 3.6
v 17.4 3.6 3.6
v 20.4 6 6.6
v 20.4 3.6 6.6
v 20.4 6 6.6
v 20.4 3.6 6.6
v 27.6 6 6.6
v 27.6 3.6 6.6
v 27.6 6 6.6
v 27.6 3.6 6.6
v 30.6 6 3.6
v 30.6 3.6 3.6
v 30.6 6 3.6
v 30.6 3.6 3.6
v 30.6 6 -3.6
v 30.6 3.6 -3.6
v 30.6 6 -3.6
v 30.6 3.6 -3.6
v 27.6 6 -6.6
v 27.6 3.6 -6.6
v 27.6 6 -6.6
v 27.6 3.6 -6.6
v 20.4 6 -6.6
v 20.4 3.6 -6.6
v 20.4 6 -6.6
v 20.4 3.6 -6.6
v 17.4 6 -3.6
v 17.4 3.6 -3.6
v 19.8 81.6 -2.4
v 19.8 81.6 2.4
v 21.6 81.6 4.2
v 26.4 81.6 4.2
v 28.2 81.6 2.4
v 28.2 81.6 -2.4
v 26.4 81.6 -4.2
v 21.6 81.6 -4.2
v 19.8 6 -2.4
v 19.8 6 2.4
v 21.6 6 4.2
v 26.4 6 4.2
v 28.2 6 2.4
v 28.2 6 -2.4
v 26.4 6 -4.2
v 21.6 6 -4.2
v 19.8 81.6 -2.4
v 19.8 6 -2.4
v 19.8 81.6 2.4
v 19.8 6 2.4
v 19.8 81.6 2.4
v 19.8 6 2.4
v 21.6 81.6 4.2
v 21.6 6 4.2
v 21.6 81.6 4.2
v 21.6 6 4.2
v 26.4 81.6 4.2
v 26.4 6 4.2
v 26.4 81.6 4.2
v 26.4 6 4.2
v 28.2 81.6 2.4
v 28.2 6 2.4
v 28.2 81.6 2.4
v 28.2 6 2.4
v 28.2 81.6 -2.4
v 28.2 6 -2.4
v 28.2 81.6 -2.4
v 28.2 6 -2.4
v 26.4 81.6 -4.2
v 26.4 6 -4.2
v 26.4 81.6 -4.2
v 26.4 6 -4.2
v 21.6 81.6 -4.2
v 21.6 6 -4.2
v 21.6 81.6 -4.2
v 21.6 6 -4.2
v 19.8 81.6 -2.4
v 19.8 6 -2.4
v 17.4 84 -3.6
v 17.4 84 3.6
v 20.4 84 6.6
v 27.6 84 6.6
v 30.6 84 3.6
v 30.6 84 -3.6
v 27.6 84 -6.6
v 20.4 84 -6.6
v 17.4 81.6 -3.6
v 17.4 81.6 3.6
v 20.4 81.6 6.6
v 27.6 81.6 6.6
v 30.6 81.6 3.6
v 30.6 81.6 -3.6
v 27.6 81.6 -6.6
v 20.4 81.6 -6.6
v 17.4 84 -3.6
v 17.4 81.6 -3.6
v 17.4 84 3.6
v 17.4 81.6 3.6
v 17.4 84 3.6
v 17.4 81.6 3.6
v 20.4 84 6.6
v 20.4 81.6 6.6
v 20.4 84 6.6
v 20.4 81.6 6.6
v 27.6 84 6.6
v 27.6 81.6 6.6
v 27.6 84 6.6
v 27.6 81.6 6.6
v 30.6 84 3.6
v 30.6 81.6 3.6
v 30.6 84 3.6
v 30.6 81.6 3.6
v 30.6 84 -3.6
v 30.6 81.6 -3.6
v 30.6 84 -3.6
v 30.6 81.6 -3.6
v 27.6 84 -6.6
v 27.6 81.6 -6.6
v 27.6 84 -6.6
v 27.6 81.6 -6.6
v 20.4 84 -6.6
v 20.4 81.6 -6.6
v 20.4 84 -6.6
v 20.4 81.6 -6.6
v 17.4 84 -3.6
v 17.4 81.6 -3.6
v 30 86.4 -5.4
v 30 92.4 -5.4
v 30 94.8 -3
v 30 94.8 3
v 30 92.4 5.4
v 30 86.4 5.4
v 30 84 3
v 30 84 -3
v -30 86.4 -5.4
v -30 92.4 -5.4
v -30 94.8 -3
v -30 94.8 3
v -30 92.4 5.4
v -30 86.4 5.4
v -30 84 3
v -30 84 -3
v 30 86.4 -5.4
v -30 86.4 -5.4
v 30 92.4 -5.4
v -30 92.4 -5.4
v 30 92.4 -5.4
v -30 92.4 -5.4
v 30 94.8 -3
v -30 94.8 -3
v 30 94.8 -3
v -30 94.8 -3
v 30 94.8 3
v -30 94.8 3
v 30 94.8 3
v -30 94.8 3
v 30 92.4 5.4
v -30 92.4 5.4
v 30 92.4 5.4
v -30 92.4 5.4
v 30 86.4 5.4
v -30 86.4 5.4
v 30 86.4 5.4
v -30 86.4 5.4
v 30 84 3
v -30 84 3
v 30 84 3
v -30 84 3
v 30 84 -3
v -30 84 -3
v 30 84 -3
v -30 84 -3
v 30 86.4 -5.4
v -30 86.4 -5.4
vt -0.075 -0.50625
vt 0.075 -0.50625
vt 0.13125 -0.45
vt 0.13125 -0.3
vt 0.075 -0.24375
vt -0.075 -0.24375
vt -0.13125 -0.3
vt -0.13125 -0.45
vt -0.075 -0.50625
vt 0.075 -0.50625
vt 0.13125 -0.45
vt 0.13125 -0.3
vt 0.075 -0.24375
vt -0.075 -0.24375
vt -0.13125 -0.3
vt -0.13125 -0.45
vt 0 0.05625
vt 0 0
vt 0.15 0.05625
vt 0.15 0
vt 0.15 0.05625
vt 0.15 0
vt 0.22955 0.05625
vt 0.22955 0
vt 0.22955 0.05625
vt 0.22955 0
vt 0.37955 0.05625
vt 0.37955 0
vt 0.37955 0.05625
vt 0.37955 0
vt 0.4591 0.05625
vt 0.4591 0
vt 0.4591 0.05625
vt 0.4591 0
vt 0.6091 0.05625
vt 0.6091 0
vt 0.6091 0.05625
vt 0.6091 0
vt 0.68865 0.05625
vt 0.68865 0
vt 0.68865 0.05625
vt 0.68865 0
vt 0.83865 0.05625
vt 0.83865 0
vt 0.83865 0.05625
vt 0.83865 0
vt 0.9182 0.05625
vt 0.9182 0
vt -0.05625 -0.47813
vt 0.05625 -0.47813
vt 0.10312 -0.43125
vt 0.10312 -0.31875
vt 0.05625 -0.27187
vt -0.05625 -0.27187
vt -0.10312 -0.31875
vt -0.10312 -0.43125
vt -0.05625 -0.47813
vt 0.05625 -0.47813
vt 0.10312 -0.43125
vt 0.10312 -0.31875
vt 0.05625 -0.27187
vt -0.05625 -0.27187
vt -0.10312 -0.31875
vt -0.10312 -0.43125
vt 0 0.09375
vt 0 0.05625
vt 0.1125 0.09375
vt 0.1125 0.05625
vt 0.1125 0.09375
vt 0.1125 0.05625
vt 0.17879 0.09375
vt 0.17879 0.05625
vt 0.17879 0.09375
vt 0.17879 0.05625
vt 0.29129 0.09375
vt 0.29129 0.05625
vt 0.29129 0.09375
vt 0.29129 0.05625
vt 0.35758 0.09375
vt 0.35758 0.05625
vt 0.35758 0.09375
vt 0.35758 0.05625
vt 0.47008 0.09375
vt 0.47008 0.05625
vt 0.47008 0.09375
vt 0.47008 0.05625
vt 0.53637 0.09375
vt 0.53637 0.05625
vt 0.53637 0.09375
vt 0.53637 0.05625
vt 0.64887 0.09375
vt 0.64887 0.05625
vt 0.64887 0.09375
vt 0.64887 0.05625
vt 0.71517 0.09375
vt 0.71517 0.05625
vt -0.0375 -0.44062
vt 0.0375 -0.44062
vt 0.06563 -0.4125
vt 0.06563 -0.3375
vt 0.0375 -0.30938
vt -0.0375 -0.30938
vt -0.06563 -0.3375
vt -0.06563 -0.4125
vt -0.0375 -0.44062
vt 0.0375 -0.44062
vt 0.06563 -0.4125
vt 0.06563 -0.3375
vt 0.0375 -0.30938
vt -0.0375 -0.30938
vt -0.06563 -0.3375
vt -0.06563 -0.4125
vt 0 1.275
vt 0 0.09375
vt 0.075 1.275
vt 0.075 0.09375
vt 0.075 1.275
vt 0.075 0.09375
vt 0.11477 1.275
vt 0.11477 0.09375
vt 0.11477 1.275
vt 0.11477 0.09375
vt 0.18977 1.275
vt 0.18977 0.09375
vt 0.18977 1.275
vt 0.18977 0.09375
vt 0.22955 1.275
vt 0.22955 0.09375
vt 0.22955 1.275
vt 0.22955 0.09375
vt 0.30455 1.275
vt 0.30455 0.09375
vt 0.30455 1.275
vt 0.30455 0.09375
vt 0.34432 1.275
vt 0.34432 0.09375
vt 0.34432 1.275
vt 0.34432 0.09375
vt 0.41932 1.275
vt 0.41932 0.09375
vt 0.41932 1.275
vt 0.41932 0.09375
vt 0.4591 1.275
vt 0.4591 0.09375
vt -0.05625 -0.47813
vt 0.05625 -0.47813
vt 0.10312 -0.43125
vt 0.10312 -0.31875
vt 0.05625 -0.27187
vt -0.05625 -0.27187
vt -0.10312 -0.31875
vt -0.10312 -0.43125
vt -0.05625 -0.47813
vt 0.05625 -0.47813
vt 0.10312 -0.43125
vt 0.10312 -0.31875
vt 0.05625 -0.27187
vt -0.05625 -0.27187
vt -0.10312 -0.31875
vt -0.10312 -0.43125
vt 0 1.3125
vt 0 1.275
vt 0.1125 1.3125
vt 0.1125 1.275
vt 0.1125 1.3125
vt 0.1125 1.275
vt 0.17879 1.3125
vt 0.17879 1.275
vt 0.17879 1.3125
vt 0.17879 1.275
vt 0.29129 1.3125
vt 0.29129 1.275
vt 0.29129 1.3125
vt 0.29129 1.275
vt 0.35758 1.3125
vt 0.35758 1.275
vt 0.35758 1.3125
vt 0.35758 1.275
vt 0.47008 1.3125
vt 0.47008 1.275
vt 0.47008 1.3125
vt 0.47008 1.275
vt 0.53637 1.3125
vt 0.53637 1.275
vt 0.53637 1.3125
vt 0.53637 1.275
vt 0.64887 1.3125
vt 0.64887 1.275
vt 0.64887 1.3125
vt 0.64887 1.275
vt 0.71517 1.3125
vt 0.71517 1.275
vt -0.075 0.24375
vt 0.075 0.24375
vt 0.13125 0.3
vt 0.13125 0.45
vt 0.075 0.50625
vt -0.075 0.50625
vt -0.13125 0.45
vt -0.13125 0.3
vt -0.075 0.24375
vt 0.075 0.24375
vt 0.13125 0.3
vt 0.13125 0.45
vt 0.075 0.50625
vt -0.075 0.50625
vt -0.13125 0.45
vt -0.13125 0.3
vt 0 0.05625
vt 0 0
vt 0.15 0.05625
vt 0.15 0
vt 0.15 0.05625
vt 0.15 0
vt 0.22955 0.05625
vt 0.22955 0
vt 0.22955 0.05625
vt 0.22955 0
vt 0.37955 0.05625
vt 0.37955 0
vt 0.37955 0.05625
vt 0.37955 0
vt 0.4591 0.05625
vt 0.4591 0
vt 0.4591 0.05625
vt 0.4591 0
vt 0.6091 0.05625
vt 0.6091 0
vt 0.6091 0.05625
vt 0.6091 0
vt 0.68865 0.05625
vt 0.68865 0
vt 0.68865 0.05625
vt 0.68865 0
vt 0.83865 0.05625
vt 0.83865 0
vt 0.83865 0.05625
vt 0.83865 0
vt 0.9182 0.05625
vt 0.9182 0
vt -0.05625 0.27187
vt 0.05625 0.27187
vt 0.10312 0.31875
vt 0.10312 0.43125
vt 0.05625 0.47813
vt -0.05625 0.47813
vt -0.10312 0.43125
vt -0.10312 0.31875
vt -0.05625 0.27187
vt 0.05625 0.27187
vt 0.10312 0.31875
vt 0.10312 0.43125
vt 0.05625 0.47813
vt -0.05625 0.47813
vt -0.10312 0.43125
vt -0.10312 0.31875
vt 0 0.09375
vt 0 0.05625
vt 0.1125 0.09375
vt 0.1125 0.05625
vt 0.1125 0.09375
vt 0.1125 0.05625
vt 0.17879 0.09375
vt 0.17879 0.05625
vt 0.17879 0.09375
vt 0.17879 0.05625
vt 0.29129 0.09375
vt 0.29129 0.05625
vt 0.29129 0.09375
vt 0.29129 0.05625
vt 0.35758 0.09375
vt 0.35758 0.05625
vt 0.35758 0.09375
vt 0.35758 0.05625
vt 0.47008 0.09375
vt 0.47008 0.05625
vt 0.47008 0.09375
vt 0.47008 0.05625
vt 0.53637 0.09375
vt 0.53637 0.05625
vt 0.53637 0.09375
vt 0.53637 0.05625
vt 0.64887 0.09375
vt 0.64887 0.05625
vt 0.64887 0.09375
vt 0.64887 0.05625
vt 0.71517 0.09375
vt 0.71517 0.05625
vt -0.0375 0.30938
vt 0.0375 0.30938
vt 0.06563 0.3375
vt 0.06563 0.4125
vt 0.0375 0.44062
vt -0.0375 0.44062
vt -0.06563 0.4125
vt -0.06563 0.3375
vt -0.0375 0.30938
vt 0.0375 0.30938
vt 0.06563 0.3375
vt 0.06563 0.4125
vt 0.0375 0.44062
vt -0.0375 0.44062
vt -0.06563 0.4125
vt -0.06563 0.3375
vt 0 1.275
vt 0 0.09375
vt 0.075 1.275
vt 0.075 0.09375
vt 0.075 1.275
vt 0.075 0.09375
vt 0.11477 1.275
vt 0.11477 0.09375
vt 0.11477 1.275
vt 0.11477 0.09375
vt 0.18977 1.275
vt 0.18977 0.09375
vt 0.18977 1.275
vt 0.18977 0.09375
vt 0.22955 1.275
vt 0.22955 0.09375
vt 0.22955 1.275
vt 0.22955 0.09375
vt 0.30455 1.275
vt 0.30455 0.09375
vt 0.30455 1.275
vt 0.30455 0.09375
vt 0.34432 1.275
vt 0.34432 0.09375
vt 0.34432 1.275
vt 0.34432 0.09375
vt 0.41932 1.275
vt 0.41932 0.09375
vt 0.41932 1.275
vt 0.41932 0.09375
vt 0.4591 1.275
vt 0.4591 0.09375
vt -0.05625 0.27187
vt 0.05625 0.27187
vt 0.10312 0.31875
vt 0.10312 0.43125
vt 0.05625 0.47813
vt -0.05625 0.47813
vt -0.10312 0.43125
vt -0.10312 0.31875
vt -0.05625 0.27187
vt 0.05625 0.27187
vt 0.10312 0.31875
vt 0.10312 0.43125
vt 0.05625 0.47813
vt -0.05625 0.47813
vt -0.10312 0.43125
vt -0.10312 0.31875
vt 0 1.3125
vt 0 1.275
vt 0.1125 1.3125
vt 0.1125 1.275
vt 0.1125 1.3125
vt 0.1125 1.275
vt 0.17879 1.3125
vt 0.17879 1.275
vt 0.17879 1.3125
vt 0.17879 1.275
vt 0.29129 1.3125
vt 0.29129 1.275
vt 0.29129 1.3125
vt 0.29129 1.275
vt 0.35758 1.3125
vt 0.35758 1.275
vt 0.35758 1.3125
vt 0.35758 1.275
vt 0.47008 1.3125
vt 0.47008 1.275
vt 0.47008 1.3125
vt 0.47008 1.275
vt 0.53637 1.3125
vt 0.53637 1.275
vt 0.53637 1.3125
vt 0.53637 1.275
vt 0.64887 1.3125
vt 0.64887 1.275
vt 0.64887 1.3125
vt 0.64887 1.275
vt 0.71517 1.3125
vt 0.71517 1.275
vt 1.35 -0.08437
vt 1.44375 -0.08437
vt 1.48125 -0.04687
vt 1.48125 0.04687
vt 1.44375 0.08437
vt 1.35 0.08437
vt 1.3125 0.04687
vt 1.3125 -0.04687
vt 1.35 -0.08437
vt 1.44375 -0.08437
vt 1.48125 -0.04687
vt 1.48125 0.04687
vt 1.44375 0.08437
vt 1.35 0.08437
vt 1.3125 0.04687
vt 1.3125 -0.04687
vt 0 0.46875
vt 0 -0.46875
vt 0.09375 0.46875
vt 0.09375 -0.46875
vt 0.09375 0.46875
vt 0.09375 -0.46875
vt 0.14678 0.46875
vt 0.14678 -0.46875
vt 0.14678 0.46875
vt 0.14678 -0.46875
vt 0.24053 0.46875
vt 0.24053 -0.46875
vt 0.24053 0.46875
vt 0.24053 -0.46875
vt 0.29357 0.46875
vt 0.29357 -0.46875
vt 0.29357 0.46875
vt 0.29357 -0.46875
vt 0.38732 0.46875
vt 0.38732 -0.46875
vt 0.38732 0.46875
vt 0.38732 -0.46875
vt 0.44035 0.46875
vt 0.44035 -0.46875
vt 0.44035 0.46875
vt 0.44035 -0.46875
vt 0.5341 0.46875
vt 0.5341 -0.46875
vt 0.5341 0.46875
vt 0.5341 -0.46875
vt 0.58713 0.46875
vt 0.58713 -0.46875
vn 0 1 0
vn 0 -1 0
vn -1 0 0
vn -1 0 0
vn -0.70711 0 0.70711
vn -0.70711 0 0.70711
vn 0 0 1
vn 0 0 1
vn 0.70711 0 0.70711
vn 0.70711 0 0.70711
vn 1 0 0
vn 1 0 0
vn 0.70711 0 -0.70711
vn 0.70711 0 -0.70711
vn 0 0 -1
vn 0 0 -1
vn -0.70711 0 -0.70711
vn -0.70711 0 -0.70711
vn 0 1 0
vn 0 -1 0
vn -1 0 0
vn -1 0 0
vn -0.70711 0 0.70711
vn -0.70711 0 0.70711
vn 0 0 1
vn 0 0 1
vn 0.70711 0 0.70711
vn 0.70711 0 0.70711
vn 1 0 0
vn 1 0 0
vn 0.70711 0 -0.70711
vn 0.70711 0 -0.70711
vn 0 0 -1
vn 0 0 -1
vn -0.70711 0 -0.70711
vn -0.70711 0 -0.70711
vn 0 1 0
vn 0 -1 0
vn -1 0 0
vn -1 0 0
vn -0.70711 0 0.70711
vn -0.70711 0 0.70711
vn 0 0 1
vn 0 0 1
vn 0.70711 0 0.70711
vn 0.70711 0 0.70711
vn 1 0 0
vn 1 0 0
vn 0.70711 0 -0.70711
vn 0.70711 0 -0.70711
vn 0 0 -1
vn 0 0 -1
vn -0.70711 0 -0.70711
vn -0.70711 0 -0.70711
vn 0 1 0
vn 0 -1 0
vn -1 0 0
vn -1 0 0
vn -0.70711 0 0.70711
vn -0.70711 0 0.70711
vn 0 0 1
vn 0 0 1
vn 0.70711 0 0.70711
vn 0.70711 0 0.70711
vn 1 0 0
vn 1 0 0
vn 0.70711 0 -0.70711
vn 0.70711 0 -0.70711
vn 0 0 -1
vn 0 0 -1
vn -0.70711 0 -0.70711
vn -0.70711 0 -0.70711
vn 0 1 0
vn 0 -1 0
vn -1 0 0
vn -1 0 0
vn -0.70711 0 0.70711
vn -0.70711 0 0.70711
vn 0 0 1
vn 0 0 1
vn 0.70711 0 0.70711
vn 0.70711 0 0.70711
vn 1 0 0
vn 1 0 0
vn 0.70711 0 -0.70711
vn 0.70711 0 -0.70711
vn 0 0 -1
vn 0 0 -1
vn -0.70711 0 -0.70711
vn -0.70711 0 -0.70711
vn 0 1 0
vn 0 -1 0
vn -1 0 0
vn -1 0 0
vn -0.70711 0 0.70711
vn -0.70711 0 0.70711
vn 0 0 1
vn 0 0 1
vn 0.70711 0 0.70711
vn 0.70711 0 0.70711
vn 1 0 0
vn 1 0 0
vn 0.70711 0 -0.70711
vn 0.70711 0 -0.70711
vn 0 0 -1
vn 0 0 -1
vn -0.70711 0 -0.70711
vn -0.70711 0 -0.70711
vn 0 1 0
vn 0 -1 0
vn -1 0 0
vn -1 0 0
vn -0.70711 0 0.70711
vn -0.70711 0 0.70711
vn 0 0 1
vn 0 0 1
vn 0.70711 0 0.70711
vn 0.70711 0 0.70711
vn 1 0 0
vn 1 0 0
vn 0.70711 0 -0.70711
vn 0.70711 0 -0.70711
vn 0 0 -1
vn 0 0 -1
vn -0.70711 0 -0.70711
vn -0.70711 0 -0.70711
vn 0 1 0
vn 0 -1 0
vn -1 0 0
vn -1 0 0
vn -0.70711 0 0.70711
vn -0.70711 0 0.70711
vn 0 0 1
vn 0 0 1
vn 0.70711 0 0.70711
vn 0.70711 0 0.70711
vn 1 0 0
vn 1 0 0
vn 0.70711 0 -0.70711
vn 0.70711 0 -0.70711
vn 0 0 -1
vn 0 0 -1
vn -0.70711 0 -0.70711
vn -0.70711 0 -0.70711
vn 1 0 0
vn -1 0 0
vn 0 0 -1
vn 0 0 -1
vn 0 0.70711 -0.70711
vn 0 0.70711 -0.70711
vn 0 1 0
vn 0 1 0
vn 0 0.70711 0.70711
vn 0 0.70711 0.70711
vn 0 0 1
vn 0 0 1
vn 0 -0.70711 0.70711
vn 0 -0.70711 0.70711
vn 0 -1 0
vn 0 -1 0
vn 0 -0.70711 -0.70711
vn 0 -0.70711 -0.70711
usemtl checkpoint_gate_trim
f 7/7/1 8/8/1 1/1/1
f 7/7/1 1/1/1 2/2/1
f 7/7/1 2/2/1 3/3/1
f 7/7/1 3/3/1 4/4/1
f 7/7/1 4/4/1 5/5/1
f 7/7/1 5/5/1 6/6/1
f 15/15/2 9/9/2 16/16/2
f 15/15/2 10/10/2 9/9/2
f 15/15/2 11/11/2 10/10/2
f 15/15/2 12/12/2 11/11/2
f 15/15/2 13/13/2 12/12/2
f 15/15/2 14/14/2 13/13/2
f 18/18/3 20/20/4 19/19/4
f 18/18/3 19/19/4 17/17/3
f 22/22/5 24/24/6 23/23/6
f 22/22/5 23/23/6 21/21/5
f 26/26/7 28/28/8 27/27/8
f 26/26/7 27/27/8 25/25/7
f 30/30/9 32/32/10 31/31/10
f 30/30/9 31/31/10 29/29/9
f 34/34/11 36/36/12 35/35/12
f 34/34/11 35/35/12 33/33/11
f 38/38/13 40/40/14 39/39/14
f 38/38/13 39/39/14 37/37/13
f 42/42/15 44/44/16 43/43/16
f 42/42/15 43/43/16 41/41/15
f 46/46/17 48/48/18 47/47/18
f 46/46/17 47/47/18 45/45/17
f 55/55/19 56/56/19 49/49/19
f 55/55/19 49/49/19 50/50/19
f 55/55/19 50/50/19 51/51/19
f 55/55/19 51/51/19 52/52/19
f 55/55/19 52/52/19 53/53/19
f 55/55/19 53/53/19 54/54/19
f 63/63/20 57/57/20 64/64/20
f 63/63/20 58/58/20 57/57/20
f 63/63/20 59/59/20 58/58/20
f 63/63/20 60/60/20 59/59/20
f 63/63/20 61/61/20 60/60/20
f 63/63/20 62/62/20 61/61/20
f 66/66/21 68/68/22 67/67/22
f 66/66/21 67/67/22 65/65/21
f 70/70/23 72/72/24 71/71/24
f 70/70/23 71/71/24 69/69/23
f 74/74/25 76/76/26 75/75/26
f 74/74/25 75/75/26 73/73/25
f 78/78/27 80/80/28 79/79/28
f 78/78/27 79/79/28 77/77/27
f 82/82/29 84/84/30 83/83/30
f 82/82/29 83/83/30 81/81/29
f 86/86/31 88/88/32 87/87/32
f 86/86/31 87/87/32 85/85/31
f 90/90/33 92/92/34 91/91/34
f 90/90/33 91/91/34 89/89/33
f 94/94/35 96/96/36 95/95/36
f 94/94/35 95/95/36 93/93/35
f 151/151/55 152/152/55 145/145/55
f 151/151/55 145/145/55 146/146/55
f 151/151/55 146/146/55 147/147/55
f 151/151/55 147/147/55 148/148/55
f 151/151/55 148/148/55 149/149/55
f 151/151/55 149/149/55 150/150/55
f 159/159/56 153/153/56 160/160/56
f 159/159/56 154/154/56 153/153/56
f 159/159/56 155/155/56 154/154/56
f 159/159/56 156/156/56 155/155/56
f 159/159/56 157/157/56 156/156/56
f 159/159/56 158/158/56 157/157/56
f 162/162/57 164/164/58 163/163/58
f 162/162/57 163/163/58 161/161/57
f 166/166/59 168/168/60 167/167/60
f 166/166/59 167/167/60 165/165/59
f 170/170/61 172/172/62 171/171/62
f 170/170/61 171/171/62 169/169/61
f 174/174/63 176/176/64 175/175/64
f 174/174/63 175/175/64 173/173/63
f 178/178/65 180/180/66 179/179/66
f 178/178/65 179/179/66 177/177/65
f 182/182/67 184/184/68 183/183/68
f 182/182/67 183/183/68 181/181/67
f 186/186/69 188/188/70 187/187/70
f 186/186/69 187/187/70 185/185/69
f 190/190/71 192/192/72 191/191/72
f 190/190/71 191/191/72 189/189/71
f 199/199/73 200/200/73 193/193/73
f 199/199/73 193/193/73 194/194/73
f 199/199/73 194/194/73 195/195/73
f 199/199/73 195/195/73 196/196/73
f 199/199/73 196/196/73 197/197/73
f 199/199/73 197/197/73 198/198/73
f 207/207/74 201/201/74 208/208/74
f 207/207/74 202/202/74 201/201/74
f 207/207/74 203/203/74 202/202/74
f 207/207/74 204/204/74 203/203/74
f 207/207/74 205/205/74 204/204/74
f 207/207/74 206/206/74 205/205/74
f 210/210/75 212/212/76 211/211/76
f 210/210/75 211/211/76 209/209/75
f 214/214/77 216/216/78 215/215/78
f 214/214/77 215/215/78 213/213/77
f 218/218/79 220/220/80 219/219/80
f 218/218/79 219/219/80 217/217/79
f 222/222/81 224/224/82 223/223/82
f 222/222/81 223/223/82 221/221/81
f 226/226/83 228/228/84 227/227/84
f 226/226/83 227/227/84 225/225/83
f 230/230/85 232/232/86 231/231/86
f 230/230/85 231/231/86 229/229/85
f 234/234/87 236/236/88 235/235/88
f 234/234/87 235/235/88 233/233/87
f 238/238/89 240/240/90 239/239/90
f 238/238/89 239/239/90 237/237/89
f 247/247/91 248/248/91 241/241/91
f 247/247/91 241/241/91 242/242/91
f 247/247/91 242/242/91 243/243/91
f 247/247/91 243/243/91 244/244/91
f 247/247/91 244/244/91 245/245/91
f 247/247/91 245/245/91 246/246/91
f 255/255/92 249/249/92 256/256/92
f 255/255/92 250/250/92 249/249/92
f 255/255/92 251/251/92 250/250/92
f 255/255/92 252/252/92 251/251/92
f 255/255/92 253/253/92 252/252/92
f 255/255/92 254/254/92 253/253/92
f 258/258/93 260/260/94 259/259/94
f 258/258/93 259/259/94 257/257/93
f 262/262/95 264/264/96 263/263/96
f 262/262/95 263/263/96 261/261/95
f 266/266/97 268/268/98 267/267/98
f 266/266/97 267/267/98 265/265/97
f 270/270/99 272/272/100 271/271/100
f 270/270/99 271/271/100 269/269/99
f 274/274/101 276/276/102 275/275/102
f 274/274/101 275/275/102 273/273/101
f 278/278/103 280/280/104 279/279/104
f 278/278/103 279/279/104 277/277/103
f 282/282/105 284/284/106 283/283/106
f 282/282/105 283/283/106 281/281/105
f 286/286/107 288/288/108 287/287/108
f 286/286/107 287/287/108 285/285/107
f 343/343/127 344/344/127 337/337/127
f 343/343/127 337/337/127 338/338/127
f 343/343/127 338/338/127 339/339/127
f 343/343/127 339/339/127 340/340/127
f 343/343/127 340/340/127 341/341/127
f 343/343/127 341/341/127 342/342/127
f 351/351/128 345/345/128 352/352/128
f 351/351/128 346/346/128 345/345/128
f 351/351/128 347/347/128 346/346/128
f 351/351/128 348/348/128 347/347/128
f 351/351/128 349/349/128 348/348/128
f 351/351/128 350/350/128 349/349/128
f 354/354/129 356/356/130 355/355/130
f 354/354/129 355/355/130 353/353/129
f 358/358/131 360/360/132 359/359/132
f 358/358/131 359/359/132 357/357/131
f 362/362/133 364/364/134 363/363/134
f 362/362/133 363/363/134 361/361/133
f 366/366/135 368/368/136 367/367/136
f 366/366/135 367/367/136 365/365/135
f 370/370/137 372/372/138 371/371/138
f 370/370/137 371/371/138 369/369/137
f 374/374/139 376/376/140 375/375/140
f 374/374/139 375/375/140 373/373/139
f 378/378/141 380/380/142 379/379/142
f 378/378/141 379/379/142 377/377/141
f 382/382/143 384/384/144 383/383/144
f 382/382/143 383/383/144 381/381/143
usemtl checkpoint_gate_body
f 103/103/37 104/104/37 97/97/37
f 103/103/37 97/97/37 98/98/37
f 103/103/37 98/98/37 99/99/37
f 103/103/37 99/99/37 100/100/37
f 103/103/37 100/100/37 101/101/37
f 103/103/37 101/101/37 102/102/37
f 111/111/38 105/105/38 112/112/38
f 111/111/38 106/106/38 105/105/38
f 111/111/38 107/107/38 106/106/38
f 111/111/38 108/108/38 107/107/38
f 111/111/38 109/109/38 108/108/38
f 111/111/38 110/110/38 109/109/38
f 114/114/39 116/116/40 115/115/40
f 114/114/39 115/115/40 113/113/39
f 118/118/41 120/120/42 119/119/42
f 118/118/41 119/119/42 117/117/41
f 122/122/43 124/124/44 123/123/44
f 122/122/43 123/123/44 121/121/43
f 126/126/45 128/128/46 127/127/46
f 126/126/45 127/127/46 125/125/45
f 130/130/47 132/132/48 131/131/48
f 130/130/47 131/131/48 129/129/47
f 134/134/49 136/136/50 135/135/50
f 134/134/49 135/135/50 133/133/49
f 138/138/51 140/140/52 139/139/52
f 138/138/51 139/139/52 137/137/51
f 142/142/53 144/144/54 143/143/54
f 142/142/53 143/143/54 141/141/53
f 295/295/109 296/296/109 289/289/109
f 295/295/109 289/289/109 290/290/109
f 295/295/109 290/290/109 291/291/109
f 295/295/109 291/291/109 292/292/109
f 295/295/109 292/292/109 293/293/109
f 295/295/109 293/293/109 294/294/109
f 303/303/110 297/297/110 304/304/110
f 303/303/110 298/298/110 297/297/110
f 303/303/110 299/299/110 298/298/110
f 303/303/110 300/300/110 299/299/110
f 303/303/110 301/301/110 300/300/110
f 303/303/110 302/302/110 301/301/110
f 306/306/111 308/308/112 307/307/112
f 306/306/111 307/307/112 305/305/111
f 310/310/113 312/312/114 311/311/114
f 310/310/113 311/311/114 309/309/113
f 314/314/115 316/316/116 315/315/116
f 314/314/115 315/315/116 313/313/115
f 318/318/117 320/320/118 319/319/118
f 318/318/117 319/319/118 317/317/117
f 322/322/119 324/324/120 323/323/120
f 322/322/119 323/323/120 321/321/119
f 326/326/121 328/328/122 327/327/122
f 326/326/121 327/327/122 325/325/121
f 330/330/123 332/332/124 331/331/124
f 330/330/123 331/331/124 329/329/123
f 334/334/125 336/336/126 335/335/126
f 334/334/125 335/335/126 333/333/125
f 391/391/145 392/392/145 385/385/145
f 391/391/145 385/385/145 386/386/145
f 391/391/145 386/386/145 387/387/145
f 391/391/145 387/387/145 388/388/145
f 391/391/145 388/388/145 389/389/145
f 391/391/145 389/389/145 390/390/145
f 399/399/146 393/393/146 400/400/146
f 399/399/146 394/394/146 393/393/146
f 399/399/146 395/395/146 394/394/146
f 399/399/146 396/396/146 395/395/146
f 399/399/146 397/397/146 396/396/146
f 399/399/146 398/398/146 397/397/146
f 402/402/147 404/404/148 403/403/148
f 402/402/147 403/403/148 401/401/147
f 406/406/149 408/408/150 407/407/150
f 406/406/149 407/407/150 405/405/149
f 410/410/151 412/412/152 411/411/152
f 410/410/151 411/411/152 409/409/151
f 414/414/153 416/416/154 415/415/154
f 414/414/153 415/415/154 413/413/153
f 418/418/155 420/420/156 419/419/156
f 418/418/155 419/419/156 417/417/155
f 422/422/157 424/424/158 423/423/158
f 422/422/157 423/423/158 421/421/157
f 426/426/159 428/428/160 427/427/160
f 426/426/159 427/427/160 425/425/159
f 430/430/161 432/432/162 431/431/162
f 430/430/161 431/431/162 429/429/161
