# AUTO-GENERATED by tools/make-checkpoint-model.mjs — edit the script, not this file.
# Y up (OBJ convention): ModelDoc turns (x, y, z) into Source (z, x, y), so this is Source (y, z, x).
o checkpoint_gate_mesh
v -32.4 3.6 -4.8
v -32.4 3.6 4.8
v -28.8 3.6 8.4
v -19.2 3.6 8.4
v -15.6 3.6 4.8
v -15.6 3.6 -4.8
v -19.2 3.6 -8.4
v -28.8 3.6 -8.4
v -32.4 0 -4.8
v -32.4 0 4.8
v -28.8 0 8.4
v -19.2 0 8.4
v -15.6 0 4.8
v -15.6 0 -4.8
v -19.2 0 -8.4
v -28.8 0 -8.4
v -32.4 3.6 -4.8
v -32.4 0 -4.8
v -32.4 3.6 4.8
v -32.4 0 4.8
v -32.4 3.6 4.8
v -32.4 0 4.8
v -28.8 3.6 8.4
v -28.8 0 8.4
v -28.8 3.6 8.4
v -28.8 0 8.4
v -19.2 3.6 8.4
v -19.2 0 8.4
v -19.2 3.6 8.4
v -19.2 0 8.4
v -15.6 3.6 4.8
v -15.6 0 4.8
v -15.6 3.6 4.8
v -15.6 0 4.8
v -15.6 3.6 -4.8
v -15.6 0 -4.8
v -15.6 3.6 -4.8
v -15.6 0 -4.8
v -19.2 3.6 -8.4
v -19.2 0 -8.4
v -19.2 3.6 -8.4
v -19.2 0 -8.4
v -28.8 3.6 -8.4
v -28.8 0 -8.4
v -28.8 3.6 -8.4
v -28.8 0 -8.4
v -32.4 3.6 -4.8
v -32.4 0 -4.8
v -30.6 6 -3.6
v -30.6 6 3.6
v -27.6 6 6.6
v -20.4 6 6.6
v -17.4 6 3.6
v -17.4 6 -3.6
v -20.4 6 -6.6
v -27.6 6 -6.6
v -30.6 3.6 -3.6
v -30.6 3.6 3.6
v -27.6 3.6 6.6
v -20.4 3.6 6.6
v -17.4 3.6 3.6
v -17.4 3.6 -3.6
v -20.4 3.6 -6.6
v -27.6 3.6 -6.6
v -30.6 6 -3.6
v -30.6 3.6 -3.6
v -30.6 6 3.6
v -30.6 3.6 3.6
v -30.6 6 3.6
v -30.6 3.6 3.6
v -27.6 6 6.6
v -27.6 3.6 6.6
v -27.6 6 6.6
v -27.6 3.6 6.6
v -20.4 6 6.6
v -20.4 3.6 6.6
v -20.4 6 6.6
v -20.4 3.6 6.6
v -17.4 6 3.6
v -17.4 3.6 3.6
v -17.4 6 3.6
v -17.4 3.6 3.6
v -17.4 6 -3.6
v -17.4 3.6 -3.6
v -17.4 6 -3.6
v -17.4 3.6 -3.6
v -20.4 6 -6.6
v -20.4 3.6 -6.6
v -20.4 6 -6.6
v -20.4 3.6 -6.6
v -27.6 6 -6.6
v -27.6 3.6 -6.6
v -27.6 6 -6.6
v -27.6 3.6 -6.6
v -30.6 6 -3.6
v -30.6 3.6 -3.6
v -28.2 81.6 -2.4
v -28.2 81.6 2.4
v -26.4 81.6 4.2
v -21.6 81.6 4.2
v -19.8 81.6 2.4
v -19.8 81.6 -2.4
v -21.6 81.6 -4.2
v -26.4 81.6 -4.2
v -28.2 6 -2.4
v -28.2 6 2.4
v -26.4 6 4.2
v -21.6 6 4.2
v -19.8 6 2.4
v -19.8 6 -2.4
v -21.6 6 -4.2
v -26.4 6 -4.2
v -28.2 81.6 -2.4
v -28.2 6 -2.4
v -28.2 81.6 2.4
v -28.2 6 2.4
v -28.2 81.6 2.4
v -28.2 6 2.4
v -26.4 81.6 4.2
v -26.4 6 4.2
v -26.4 81.6 4.2
v -26.4 6 4.2
v -21.6 81.6 4.2
v -21.6 6 4.2
v -21.6 81.6 4.2
v -21.6 6 4.2
v -19.8 81.6 2.4
v -19.8 6 2.4
v -19.8 81.6 2.4
v -19.8 6 2.4
v -19.8 81.6 -2.4
v -19.8 6 -2.4
v -19.8 81.6 -2.4
v -19.8 6 -2.4
v -21.6 81.6 -4.2
v -21.6 6 -4.2
v -21.6 81.6 -4.2
v -21.6 6 -4.2
v -26.4 81.6 -4.2
v -26.4 6 -4.2
v -26.4 81.6 -4.2
v -26.4 6 -4.2
v -28.2 81.6 -2.4
v -28.2 6 -2.4
v -30.6 84 -3.6
v -30.6 84 3.6
v -27.6 84 6.6
v -20.4 84 6.6
v -17.4 84 3.6
v -17.4 84 -3.6
v -20.4 84 -6.6
v -27.6 84 -6.6
v -30.6 81.6 -3.6
v -30.6 81.6 3.6
v -27.6 81.6 6.6
v -20.4 81.6 6.6
v -17.4 81.6 3.6
v -17.4 81.6 -3.6
v -20.4 81.6 -6.6
v -27.6 81.6 -6.6
v -30.6 84 -3.6
v -30.6 81.6 -3.6
v -30.6 84 3.6
v -30.6 81.6 3.6
v -30.6 84 3.6
v -30.6 81.6 3.6
v -27.6 84 6.6
v -27.6 81.6 6.6
v -27.6 84 6.6
v -27.6 81.6 6.6
v -20.4 84 6.6
v -20.4 81.6 6.6
v -20.4 84 6.6
v -20.4 81.6 6.6
v -17.4 84 3.6
v -17.4 81.6 3.6
v -17.4 84 3.6
v -17.4 81.6 3.6
v -17.4 84 -3.6
v -17.4 81.6 -3.6
v -17.4 84 -3.6
v -17.4 81.6 -3.6
v -20.4 84 -6.6
v -20.4 81.6 -6.6
v -20.4 84 -6.6
v -20.4 81.6 -6.6
v -27.6 84 -6.6
v -27.6 81.6 -6.6
v -27.6 84 -6.6
v -27.6 81.6 -6.6
v -30.6 84 -3.6
v -30.6 81.6 -3.6
v -28.95 80.4 -2.85
v -28.95 80.4 2.85
v -26.85 80.4 4.95
v -21.15 80.4 4.95
v -19.05 80.4 2.85
v -19.05 80.4 -2.85
v -21.15 80.4 -4.95
v -26.85 80.4 -4.95
v -28.95 78 -2.85
v -28.95 78 2.85
v -26.85 78 4.95
v -21.15 78 4.95
v -19.05 78 2.85
v -19.05 78 -2.85
v -21.15 78 -4.95
v -26.85 78 -4.95
v -28.95 80.4 -2.85
v -28.95 78 -2.85
v -28.95 80.4 2.85
v -28.95 78 2.85
v -28.95 80.4 2.85
v -28.95 78 2.85
v -26.85 80.4 4.95
v -26.85 78 4.95
v -26.85 80.4 4.95
v -26.85 78 4.95
v -21.15 80.4 4.95
v -21.15 78 4.95
v -21.15 80.4 4.95
v -21.15 78 4.95
v -19.05 80.4 2.85
v -19.05 78 2.85
v -19.05 80.4 2.85
v -19.05 78 2.85
v -19.05 80.4 -2.85
v -19.05 78 -2.85
v -19.05 80.4 -2.85
v -19.05 78 -2.85
v -21.15 80.4 -4.95
v -21.15 78 -4.95
v -21.15 80.4 -4.95
v -21.15 78 -4.95
v -26.85 80.4 -4.95
v -26.85 78 -4.95
v -26.85 80.4 -4.95
v -26.85 78 -4.95
v -28.95 80.4 -2.85
v -28.95 78 -2.85
v -25.2 75.6 3.9
v -25.2 75.6 5.1
v -22.8 75.6 5.1
v -22.8 75.6 3.9
v -25.2 9.6 3.9
v -25.2 9.6 5.1
v -22.8 9.6 5.1
v -22.8 9.6 3.9
v -25.2 75.6 3.9
v -25.2 9.6 3.9
v -25.2 75.6 5.1
v -25.2 9.6 5.1
v -25.2 75.6 5.1
v -25.2 9.6 5.1
v -22.8 75.6 5.1
v -22.8 9.6 5.1
v -22.8 75.6 5.1
v -22.8 9.6 5.1
v -22.8 75.6 3.9
v -22.8 9.6 3.9
v -22.8 75.6 3.9
v -22.8 9.6 3.9
v -25.2 75.6 3.9
v -25.2 9.6 3.9
v -25.2 75.6 -5.1
v -25.2 75.6 -3.9
v -22.8 75.6 -3.9
v -22.8 75.6 -5.1
v -25.2 9.6 -5.1
v -25.2 9.6 -3.9
v -22.8 9.6 -3.9
v -22.8 9.6 -5.1
v -25.2 75.6 -5.1
v -25.2 9.6 -5.1
v -25.2 75.6 -3.9
v -25.2 9.6 -3.9
v -25.2 75.6 -3.9
v -25.2 9.6 -3.9
v -22.8 75.6 -3.9
v -22.8 9.6 -3.9
v -22.8 75.6 -3.9
v -22.8 9.6 -3.9
v -22.8 75.6 -5.1
v -22.8 9.6 -5.1
v -22.8 75.6 -5.1
v -22.8 9.6 -5.1
v -25.2 75.6 -5.1
v -25.2 9.6 -5.1
v -20.1 75.6 -1.2
v -20.1 75.6 1.2
v -18.9 75.6 1.2
v -18.9 75.6 -1.2
v -20.1 9.6 -1.2
v -20.1 9.6 1.2
v -18.9 9.6 1.2
v -18.9 9.6 -1.2
v -20.1 75.6 -1.2
v -20.1 9.6 -1.2
v -20.1 75.6 1.2
v -20.1 9.6 1.2
v -20.1 75.6 1.2
v -20.1 9.6 1.2
v -18.9 75.6 1.2
v -18.9 9.6 1.2
v -18.9 75.6 1.2
v -18.9 9.6 1.2
v -18.9 75.6 -1.2
v -18.9 9.6 -1.2
v -18.9 75.6 -1.2
v -18.9 9.6 -1.2
v -20.1 75.6 -1.2
v -20.1 9.6 -1.2
v -29.1 75.6 -1.2
v -29.1 75.6 1.2
v -27.9 75.6 1.2
v -27.9 75.6 -1.2
v -29.1 9.6 -1.2
v -29.1 9.6 1.2
v -27.9 9.6 1.2
v -27.9 9.6 -1.2
v -29.1 75.6 -1.2
v -29.1 9.6 -1.2
v -29.1 75.6 1.2
v -29.1 9.6 1.2
v -29.1 75.6 1.2
v -29.1 9.6 1.2
v -27.9 75.6 1.2
v -27.9 9.6 1.2
v -27.9 75.6 1.2
v -27.9 9.6 1.2
v -27.9 75.6 -1.2
v -27.9 9.6 -1.2
v -27.9 75.6 -1.2
v -27.9 9.6 -1.2
v -29.1 75.6 -1.2
v -29.1 9.6 -1.2
v 15.6 3.6 -4.8
v 15.6 3.6 4.8
v 19.2 3.6 8.4
v 28.8 3.6 8.4
v 32.4 3.6 4.8
v 32.4 3.6 -4.8
v 28.8 3.6 -8.4
v 19.2 3.6 -8.4
v 15.6 0 -4.8
v 15.6 0 4.8
v 19.2 0 8.4
v 28.8 0 8.4
v 32.4 0 4.8
v 32.4 0 -4.8
v 28.8 0 -8.4
v 19.2 0 -8.4
v 15.6 3.6 -4.8
v 15.6 0 -4.8
v 15.6 3.6 4.8
v 15.6 0 4.8
v 15.6 3.6 4.8
v 15.6 0 4.8
v 19.2 3.6 8.4
v 19.2 0 8.4
v 19.2 3.6 8.4
v 19.2 0 8.4
v 28.8 3.6 8.4
v 28.8 0 8.4
v 28.8 3.6 8.4
v 28.8 0 8.4
v 32.4 3.6 4.8
v 32.4 0 4.8
v 32.4 3.6 4.8
v 32.4 0 4.8
v 32.4 3.6 -4.8
v 32.4 0 -4.8
v 32.4 3.6 -4.8
v 32.4 0 -4.8
v 28.8 3.6 -8.4
v 28.8 0 -8.4
v 28.8 3.6 -8.4
v 28.8 0 -8.4
v 19.2 3.6 -8.4
v 19.2 0 -8.4
v 19.2 3.6 -8.4
v 19.2 0 -8.4
v 15.6 3.6 -4.8
v 15.6 0 -4.8
v 17.4 6 -3.6
v 17.4 6 3.6
v 20.4 6 6.6
v 27.6 6 6.6
v 30.6 6 3.6
v 30.6 6 -3.6
v 27.6 6 -6.6
v 20.4 6 -6.6
v 17.4 3.6 -3.6
v 17.4 3.6 3.6
v 20.4 3.6 6.6
v 27.6 3.6 6.6
v 30.6 3.6 3.6
v 30.6 3.6 -3.6
v 27.6 3.6 -6.6
v 20.4 3.6 -6.6
v 17.4 6 -3.6
v 17.4 3.6 -3.6
v 17.4 6 3.6
v 17.4 3.6 3.6
v 17.4 6 3.6
v 17.4 3.6 3.6
v 20.4 6 6.6
v 20.4 3.6 6.6
v 20.4 6 6.6
v 20.4 3.6 6.6
v 27.6 6 6.6
v 27.6 3.6 6.6
v 27.6 6 6.6
v 27.6 3.6 6.6
v 30.6 6 3.6
v 30.6 3.6 3.6
v 30.6 6 3.6
v 30.6 3.6 3.6
v 30.6 6 -3.6
v 30.6 3.6 -3.6
v 30.6 6 -3.6
v 30.6 3.6 -3.6
v 27.6 6 -6.6
v 27.6 3.6 -6.6
v 27.6 6 -6.6
v 27.6 3.6 -6.6
v 20.4 6 -6.6
v 20.4 3.6 -6.6
v 20.4 6 -6.6
v 20.4 3.6 -6.6
v 17.4 6 -3.6
v 17.4 3.6 -3.6
v 19.8 81.6 -2.4
v 19.8 81.6 2.4
v 21.6 81.6 4.2
v 26.4 81.6 4.2
v 28.2 81.6 2.4
v 28.2 81.6 -2.4
v 26.4 81.6 -4.2
v 21.6 81.6 -4.2
v 19.8 6 -2.4
v 19.8 6 2.4
v 21.6 6 4.2
v 26.4 6 4.2
v 28.2 6 2.4
v 28.2 6 -2.4
v 26.4 6 -4.2
v 21.6 6 -4.2
v 19.8 81.6 -2.4
v 19.8 6 -2.4
v 19.8 81.6 2.4
v 19.8 6 2.4
v 19.8 81.6 2.4
v 19.8 6 2.4
v 21.6 81.6 4.2
v 21.6 6 4.2
v 21.6 81.6 4.2
v 21.6 6 4.2
v 26.4 81.6 4.2
v 26.4 6 4.2
v 26.4 81.6 4.2
v 26.4 6 4.2
v 28.2 81.6 2.4
v 28.2 6 2.4
v 28.2 81.6 2.4
v 28.2 6 2.4
v 28.2 81.6 -2.4
v 28.2 6 -2.4
v 28.2 81.6 -2.4
v 28.2 6 -2.4
v 26.4 81.6 -4.2
v 26.4 6 -4.2
v 26.4 81.6 -4.2
v 26.4 6 -4.2
v 21.6 81.6 -4.2
v 21.6 6 -4.2
v 21.6 81.6 -4.2
v 21.6 6 -4.2
v 19.8 81.6 -2.4
v 19.8 6 -2.4
v 17.4 84 -3.6
v 17.4 84 3.6
v 20.4 84 6.6
v 27.6 84 6.6
v 30.6 84 3.6
v 30.6 84 -3.6
v 27.6 84 -6.6
v 20.4 84 -6.6
v 17.4 81.6 -3.6
v 17.4 81.6 3.6
v 20.4 81.6 6.6
v 27.6 81.6 6.6
v 30.6 81.6 3.6
v 30.6 81.6 -3.6
v 27.6 81.6 -6.6
v 20.4 81.6 -6.6
v 17.4 84 -3.6
v 17.4 81.6 -3.6
v 17.4 84 3.6
v 17.4 81.6 3.6
v 17.4 84 3.6
v 17.4 81.6 3.6
v 20.4 84 6.6
v 20.4 81.6 6.6
v 20.4 84 6.6
v 20.4 81.6 6.6
v 27.6 84 6.6
v 27.6 81.6 6.6
v 27.6 84 6.6
v 27.6 81.6 6.6
v 30.6 84 3.6
v 30.6 81.6 3.6
v 30.6 84 3.6
v 30.6 81.6 3.6
v 30.6 84 -3.6
v 30.6 81.6 -3.6
v 30.6 84 -3.6
v 30.6 81.6 -3.6
v 27.6 84 -6.6
v 27.6 81.6 -6.6
v 27.6 84 -6.6
v 27.6 81.6 -6.6
v 20.4 84 -6.6
v 20.4 81.6 -6.6
v 20.4 84 -6.6
v 20.4 81.6 -6.6
v 17.4 84 -3.6
v 17.4 81.6 -3.6
v 19.05 80.4 -2.85
v 19.05 80.4 2.85
v 21.15 80.4 4.95
v 26.85 80.4 4.95
v 28.95 80.4 2.85
v 28.95 80.4 -2.85
v 26.85 80.4 -4.95
v 21.15 80.4 -4.95
v 19.05 78 -2.85
v 19.05 78 2.85
v 21.15 78 4.95
v 26.85 78 4.95
v 28.95 78 2.85
v 28.95 78 -2.85
v 26.85 78 -4.95
v 21.15 78 -4.95
v 19.05 80.4 -2.85
v 19.05 78 -2.85
v 19.05 80.4 2.85
v 19.05 78 2.85
v 19.05 80.4 2.85
v 19.05 78 2.85
v 21.15 80.4 4.95
v 21.15 78 4.95
v 21.15 80.4 4.95
v 21.15 78 4.95
v 26.85 80.4 4.95
v 26.85 78 4.95
v 26.85 80.4 4.95
v 26.85 78 4.95
v 28.95 80.4 2.85
v 28.95 78 2.85
v 28.95 80.4 2.85
v 28.95 78 2.85
v 28.95 80.4 -2.85
v 28.95 78 -2.85
v 28.95 80.4 -2.85
v 28.95 78 -2.85
v 26.85 80.4 -4.95
v 26.85 78 -4.95
v 26.85 80.4 -4.95
v 26.85 78 -4.95
v 21.15 80.4 -4.95
v 21.15 78 -4.95
v 21.15 80.4 -4.95
v 21.15 78 -4.95
v 19.05 80.4 -2.85
v 19.05 78 -2.85
v 22.8 75.6 3.9
v 22.8 75.6 5.1
v 25.2 75.6 5.1
v 25.2 75.6 3.9
v 22.8 9.6 3.9
v 22.8 9.6 5.1
v 25.2 9.6 5.1
v 25.2 9.6 3.9
v 22.8 75.6 3.9
v 22.8 9.6 3.9
v 22.8 75.6 5.1
v 22.8 9.6 5.1
v 22.8 75.6 5.1
v 22.8 9.6 5.1
v 25.2 75.6 5.1
v 25.2 9.6 5.1
v 25.2 75.6 5.1
v 25.2 9.6 5.1
v 25.2 75.6 3.9
v 25.2 9.6 3.9
v 25.2 75.6 3.9
v 25.2 9.6 3.9
v 22.8 75.6 3.9
v 22.8 9.6 3.9
v 22.8 75.6 -5.1
v 22.8 75.6 -3.9
v 25.2 75.6 -3.9
v 25.2 75.6 -5.1
v 22.8 9.6 -5.1
v 22.8 9.6 -3.9
v 25.2 9.6 -3.9
v 25.2 9.6 -5.1
v 22.8 75.6 -5.1
v 22.8 9.6 -5.1
v 22.8 75.6 -3.9
v 22.8 9.6 -3.9
v 22.8 75.6 -3.9
v 22.8 9.6 -3.9
v 25.2 75.6 -3.9
v 25.2 9.6 -3.9
v 25.2 75.6 -3.9
v 25.2 9.6 -3.9
v 25.2 75.6 -5.1
v 25.2 9.6 -5.1
v 25.2 75.6 -5.1
v 25.2 9.6 -5.1
v 22.8 75.6 -5.1
v 22.8 9.6 -5.1
v 27.9 75.6 -1.2
v 27.9 75.6 1.2
v 29.1 75.6 1.2
v 29.1 75.6 -1.2
v 27.9 9.6 -1.2
v 27.9 9.6 1.2
v 29.1 9.6 1.2
v 29.1 9.6 -1.2
v 27.9 75.6 -1.2
v 27.9 9.6 -1.2
v 27.9 75.6 1.2
v 27.9 9.6 1.2
v 27.9 75.6 1.2
v 27.9 9.6 1.2
v 29.1 75.6 1.2
v 29.1 9.6 1.2
v 29.1 75.6 1.2
v 29.1 9.6 1.2
v 29.1 75.6 -1.2
v 29.1 9.6 -1.2
v 29.1 75.6 -1.2
v 29.1 9.6 -1.2
v 27.9 75.6 -1.2
v 27.9 9.6 -1.2
v 18.9 75.6 -1.2
v 18.9 75.6 1.2
v 20.1 75.6 1.2
v 20.1 75.6 -1.2
v 18.9 9.6 -1.2
v 18.9 9.6 1.2
v 20.1 9.6 1.2
v 20.1 9.6 -1.2
v 18.9 75.6 -1.2
v 18.9 9.6 -1.2
v 18.9 75.6 1.2
v 18.9 9.6 1.2
v 18.9 75.6 1.2
v 18.9 9.6 1.2
v 20.1 75.6 1.2
v 20.1 9.6 1.2
v 20.1 75.6 1.2
v 20.1 9.6 1.2
v 20.1 75.6 -1.2
v 20.1 9.6 -1.2
v 20.1 75.6 -1.2
v 20.1 9.6 -1.2
v 18.9 75.6 -1.2
v 18.9 9.6 -1.2
v 30 86.4 -5.4
v 30 92.4 -5.4
v 30 94.8 -3
v 30 94.8 3
v 30 92.4 5.4
v 30 86.4 5.4
v 30 84 3
v 30 84 -3
v -30 86.4 -5.4
v -30 92.4 -5.4
v -30 94.8 -3
v -30 94.8 3
v -30 92.4 5.4
v -30 86.4 5.4
v -30 84 3
v -30 84 -3
v 30 86.4 -5.4
v -30 86.4 -5.4
v 30 92.4 -5.4
v -30 92.4 -5.4
v 30 92.4 -5.4
v -30 92.4 -5.4
v 30 94.8 -3
v -30 94.8 -3
v 30 94.8 -3
v -30 94.8 -3
v 30 94.8 3
v -30 94.8 3
v 30 94.8 3
v -30 94.8 3
v 30 92.4 5.4
v -30 92.4 5.4
v 30 92.4 5.4
v -30 92.4 5.4
v 30 86.4 5.4
v -30 86.4 5.4
v 30 86.4 5.4
v -30 86.4 5.4
v 30 84 3
v -30 84 3
v 30 84 3
v -30 84 3
v 30 84 -3
v -30 84 -3
v 30 84 -3
v -30 84 -3
v 30 86.4 -5.4
v -30 86.4 -5.4
v 16.8 88.2 -6.3
v 16.8 90.6 -6.3
v 16.8 90.6 -5.1
v 16.8 88.2 -5.1
v -16.8 88.2 -6.3
v -16.8 90.6 -6.3
v -16.8 90.6 -5.1
v -16.8 88.2 -5.1
v 16.8 88.2 -6.3
v -16.8 88.2 -6.3
v 16.8 90.6 -6.3
v -16.8 90.6 -6.3
v 16.8 90.6 -6.3
v -16.8 90.6 -6.3
v 16.8 90.6 -5.1
v -16.8 90.6 -5.1
v 16.8 90.6 -5.1
v -16.8 90.6 -5.1
v 16.8 88.2 -5.1
v -16.8 88.2 -5.1
v 16.8 88.2 -5.1
v -16.8 88.2 -5.1
v 16.8 88.2 -6.3
v -16.8 88.2 -6.3
v 16.8 88.2 5.1
v 16.8 90.6 5.1
v 16.8 90.6 6.3
v 16.8 88.2 6.3
v -16.8 88.2 5.1
v -16.8 90.6 5.1
v -16.8 90.6 6.3
v -16.8 88.2 6.3
v 16.8 88.2 5.1
v -16.8 88.2 5.1
v 16.8 90.6 5.1
v -16.8 90.6 5.1
v 16.8 90.6 5.1
v -16.8 90.6 5.1
v 16.8 90.6 6.3
v -16.8 90.6 6.3
v 16.8 90.6 6.3
v -16.8 90.6 6.3
v 16.8 88.2 6.3
v -16.8 88.2 6.3
v 16.8 88.2 6.3
v -16.8 88.2 6.3
v 16.8 88.2 5.1
v -16.8 88.2 5.1
v 0 111.6 8.4
v 8.4 111.6 0
v 0 124.8 0
v 8.4 111.6 0
v 0 111.6 8.4
v 0 98.4 0
v 8.4 111.6 0
v 0 111.6 -8.4
v 0 124.8 0
v 0 111.6 -8.4
v 8.4 111.6 0
v 0 98.4 0
v 0 111.6 -8.4
v -8.4 111.6 0
v 0 124.8 0
v -8.4 111.6 0
v 0 111.6 -8.4
v 0 98.4 0
v -8.4 111.6 0
v 0 111.6 8.4
v 0 124.8 0
v 0 111.6 8.4
v -8.4 111.6 0
v 0 98.4 0
vt -0.075 -0.50625
vt 0.075 -0.50625
vt 0.13125 -0.45
vt 0.13125 -0.3
vt 0.075 -0.24375
vt -0.075 -0.24375
vt -0.13125 -0.3
vt -0.13125 -0.45
vt -0.075 -0.50625
vt 0.075 -0.50625
vt 0.13125 -0.45
vt 0.13125 -0.3
vt 0.075 -0.24375
vt -0.075 -0.24375
vt -0.13125 -0.3
vt -0.13125 -0.45
vt 0 0.05625
vt 0 0
vt 0.15 0.05625
vt 0.15 0
vt 0.15 0.05625
vt 0.15 0
vt 0.22955 0.05625
vt 0.22955 0
vt 0.22955 0.05625
vt 0.22955 0
vt 0.37955 0.05625
vt 0.37955 0
vt 0.37955 0.05625
vt 0.37955 0
vt 0.4591 0.05625
vt 0.4591 0
vt 0.4591 0.05625
vt 0.4591 0
vt 0.6091 0.05625
vt 0.6091 0
vt 0.6091 0.05625
vt 0.6091 0
vt 0.68865 0.05625
vt 0.68865 0
vt 0.68865 0.05625
vt 0.68865 0
vt 0.83865 0.05625
vt 0.83865 0
vt 0.83865 0.05625
vt 0.83865 0
vt 0.9182 0.05625
vt 0.9182 0
vt -0.05625 -0.47813
vt 0.05625 -0.47813
vt 0.10312 -0.43125
vt 0.10312 -0.31875
vt 0.05625 -0.27187
vt -0.05625 -0.27187
vt -0.10312 -0.31875
vt -0.10312 -0.43125
vt -0.05625 -0.47813
vt 0.05625 -0.47813
vt 0.10312 -0.43125
vt 0.10312 -0.31875
vt 0.05625 -0.27187
vt -0.05625 -0.27187
vt -0.10312 -0.31875
vt -0.10312 -0.43125
vt 0 0.09375
vt 0 0.05625
vt 0.1125 0.09375
vt 0.1125 0.05625
vt 0.1125 0.09375
vt 0.1125 0.05625
vt 0.17879 0.09375
vt 0.17879 0.05625
vt 0.17879 0.09375
vt 0.17879 0.05625
vt 0.29129 0.09375
vt 0.29129 0.05625
vt 0.29129 0.09375
vt 0.29129 0.05625
vt 0.35758 0.09375
vt 0.35758 0.05625
vt 0.35758 0.09375
vt 0.35758 0.05625
vt 0.47008 0.09375
vt 0.47008 0.05625
vt 0.47008 0.09375
vt 0.47008 0.05625
vt 0.53637 0.09375
vt 0.53637 0.05625
vt 0.53637 0.09375
vt 0.53637 0.05625
vt 0.64887 0.09375
vt 0.64887 0.05625
vt 0.64887 0.09375
vt 0.64887 0.05625
vt 0.71517 0.09375
vt 0.71517 0.05625
vt -0.0375 -0.44062
vt 0.0375 -0.44062
vt 0.06563 -0.4125
vt 0.06563 -0.3375
vt 0.0375 -0.30938
vt -0.0375 -0.30938
vt -0.06563 -0.3375
vt -0.06563 -0.4125
vt -0.0375 -0.44062
vt 0.0375 -0.44062
vt 0.06563 -0.4125
vt 0.06563 -0.3375
vt 0.0375 -0.30938
vt -0.0375 -0.30938
vt -0.06563 -0.3375
vt -0.06563 -0.4125
vt 0 1.275
vt 0 0.09375
vt 0.075 1.275
vt 0.075 0.09375
vt 0.075 1.275
vt 0.075 0.09375
vt 0.11477 1.275
vt 0.11477 0.09375
vt 0.11477 1.275
vt 0.11477 0.09375
vt 0.18977 1.275
vt 0.18977 0.09375
vt 0.18977 1.275
vt 0.18977 0.09375
vt 0.22955 1.275
vt 0.22955 0.09375
vt 0.22955 1.275
vt 0.22955 0.09375
vt 0.30455 1.275
vt 0.30455 0.09375
vt 0.30455 1.275
vt 0.30455 0.09375
vt 0.34432 1.275
vt 0.34432 0.09375
vt 0.34432 1.275
vt 0.34432 0.09375
vt 0.41932 1.275
vt 0.41932 0.09375
vt 0.41932 1.275
vt 0.41932 0.09375
vt 0.4591 1.275
vt 0.4591 0.09375
vt -0.05625 -0.47813
vt 0.05625 -0.47813
vt 0.10312 -0.43125
vt 0.10312 -0.31875
vt 0.05625 -0.27187
vt -0.05625 -0.27187
vt -0.10312 -0.31875
vt -0.10312 -0.43125
vt -0.05625 -0.47813
vt 0.05625 -0.47813
vt 0.10312 -0.43125
vt 0.10312 -0.31875
vt 0.05625 -0.27187
vt -0.05625 -0.27187
vt -0.10312 -0.31875
vt -0.10312 -0.43125
vt 0 1.3125
vt 0 1.275
vt 0.1125 1.3125
vt 0.1125 1.275
vt 0.1125 1.3125
vt 0.1125 1.275
vt 0.17879 1.3125
vt 0.17879 1.275
vt 0.17879 1.3125
vt 0.17879 1.275
vt 0.29129 1.3125
vt 0.29129 1.275
vt 0.29129 1.3125
vt 0.29129 1.275
vt 0.35758 1.3125
vt 0.35758 1.275
vt 0.35758 1.3125
vt 0.35758 1.275
vt 0.47008 1.3125
vt 0.47008 1.275
vt 0.47008 1.3125
vt 0.47008 1.275
vt 0.53637 1.3125
vt 0.53637 1.275
vt 0.53637 1.3125
vt 0.53637 1.275
vt 0.64887 1.3125
vt 0.64887 1.275
vt 0.64887 1.3125
vt 0.64887 1.275
vt 0.71517 1.3125
vt 0.71517 1.275
vt -0.04453 -0.45234
vt 0.04453 -0.45234
vt 0.07734 -0.41953
vt 0.07734 -0.33047
vt 0.04453 -0.29766
vt -0.04453 -0.29766
vt -0.07734 -0.33047
vt -0.07734 -0.41953
vt -0.04453 -0.45234
vt 0.04453 -0.45234
vt 0.07734 -0.41953
vt 0.07734 -0.33047
vt 0.04453 -0.29766
vt -0.04453 -0.29766
vt -0.07734 -0.33047
vt -0.07734 -0.41953
vt 0 1.25625
vt 0 1.21875
vt 0.08906 1.25625
vt 0.08906 1.21875
vt 0.08906 1.25625
vt 0.08906 1.21875
vt 0.13547 1.25625
vt 0.13547 1.21875
vt 0.13547 1.25625
vt 0.13547 1.21875
vt 0.22453 1.25625
vt 0.22453 1.21875
vt 0.22453 1.25625
vt 0.22453 1.21875
vt 0.27093 1.25625
vt 0.27093 1.21875
vt 0.27093 1.25625
vt 0.27093 1.21875
vt 0.36 1.25625
vt 0.36 1.21875
vt 0.36 1.25625
vt 0.36 1.21875
vt 0.4064 1.25625
vt 0.4064 1.21875
vt 0.4064 1.25625
vt 0.4064 1.21875
vt 0.49546 1.25625
vt 0.49546 1.21875
vt 0.49546 1.25625
vt 0.49546 1.21875
vt 0.54187 1.25625
vt 0.54187 1.21875
vt 0.06094 -0.39375
vt 0.07969 -0.39375
vt 0.07969 -0.35625
vt 0.06094 -0.35625
vt 0.06094 -0.39375
vt 0.07969 -0.39375
vt 0.07969 -0.35625
vt 0.06094 -0.35625
vt 0 1.18125
vt 0 0.15
vt 0.01875 1.18125
vt 0.01875 0.15
vt 0.01875 1.18125
vt 0.01875 0.15
vt 0.05625 1.18125
vt 0.05625 0.15
vt 0.05625 1.18125
vt 0.05625 0.15
vt 0.075 1.18125
vt 0.075 0.15
vt 0.075 1.18125
vt 0.075 0.15
vt 0.1125 1.18125
vt 0.1125 0.15
vt -0.07969 -0.39375
vt -0.06094 -0.39375
vt -0.06094 -0.35625
vt -0.07969 -0.35625
vt -0.07969 -0.39375
vt -0.06094 -0.39375
vt -0.06094 -0.35625
vt -0.07969 -0.35625
vt 0 1.18125
vt 0 0.15
vt 0.01875 1.18125
vt 0.01875 0.15
vt 0.01875 1.18125
vt 0.01875 0.15
vt 0.05625 1.18125
vt 0.05625 0.15
vt 0.05625 1.18125
vt 0.05625 0.15
vt 0.075 1.18125
vt 0.075 0.15
vt 0.075 1.18125
vt 0.075 0.15
vt 0.1125 1.18125
vt 0.1125 0.15
vt -0.01875 -0.31406
vt 0.01875 -0.31406
vt 0.01875 -0.29531
vt -0.01875 -0.29531
vt -0.01875 -0.31406
vt 0.01875 -0.31406
vt 0.01875 -0.29531
vt -0.01875 -0.29531
vt 0 1.18125
vt 0 0.15
vt 0.0375 1.18125
vt 0.0375 0.15
vt 0.0375 1.18125
vt 0.0375 0.15
vt 0.05625 1.18125
vt 0.05625 0.15
vt 0.05625 1.18125
vt 0.05625 0.15
vt 0.09375 1.18125
vt 0.09375 0.15
vt 0.09375 1.18125
vt 0.09375 0.15
vt 0.1125 1.18125
vt 0.1125 0.15
vt -0.01875 -0.45469
vt 0.01875 -0.45469
vt 0.01875 -0.43594
vt -0.01875 -0.43594
vt -0.01875 -0.45469
vt 0.01875 -0.45469
vt 0.01875 -0.43594
vt -0.01875 -0.43594
vt 0 1.18125
vt 0 0.15
vt 0.0375 1.18125
vt 0.0375 0.15
vt 0.0375 1.18125
vt 0.0375 0.15
vt 0.05625 1.18125
vt 0.05625 0.15
vt 0.05625 1.18125
vt 0.05625 0.15
vt 0.09375 1.18125
vt 0.09375 0.15
vt 0.09375 1.18125
vt 0.09375 0.15
vt 0.1125 1.18125
vt 0.1125 0.15
vt -0.075 0.24375
vt 0.075 0.24375
vt 0.13125 0.3
vt 0.13125 0.45
vt 0.075 0.50625
vt -0.075 0.50625
vt -0.13125 0.45
vt -0.13125 0.3
vt -0.075 0.24375
vt 0.075 0.24375
vt 0.13125 0.3
vt 0.13125 0.45
vt 0.075 0.50625
vt -0.075 0.50625
vt -0.13125 0.45
vt -0.13125 0.3
vt 0 0.05625
vt 0 0
vt 0.15 0.05625
vt 0.15 0
vt 0.15 0.05625
vt 0.15 0
vt 0.22955 0.05625
vt 0.22955 0
vt 0.22955 0.05625
vt 0.22955 0
vt 0.37955 0.05625
vt 0.37955 0
vt 0.37955 0.05625
vt 0.37955 0
vt 0.4591 0.05625
vt 0.4591 0
vt 0.4591 0.05625
vt 0.4591 0
vt 0.6091 0.05625
vt 0.6091 0
vt 0.6091 0.05625
vt 0.6091 0
vt 0.68865 0.05625
vt 0.68865 0
vt 0.68865 0.05625
vt 0.68865 0
vt 0.83865 0.05625
vt 0.83865 0
vt 0.83865 0.05625
vt 0.83865 0
vt 0.9182 0.05625
vt 0.9182 0
vt -0.05625 0.27187
vt 0.05625 0.27187
vt 0.10312 0.31875
vt 0.10312 0.43125
vt 0.05625 0.47813
vt -0.05625 0.47813
vt -0.10312 0.43125
vt -0.10312 0.31875
vt -0.05625 0.27187
vt 0.05625 0.27187
vt 0.10312 0.31875
vt 0.10312 0.43125
vt 0.05625 0.47813
vt -0.05625 0.47813
vt -0.10312 0.43125
vt -0.10312 0.31875
vt 0 0.09375
vt 0 0.05625
vt 0.1125 0.09375
vt 0.1125 0.05625
vt 0.1125 0.09375
vt 0.1125 0.05625
vt 0.17879 0.09375
vt 0.17879 0.05625
vt 0.17879 0.09375
vt 0.17879 0.05625
vt 0.29129 0.09375
vt 0.29129 0.05625
vt 0.29129 0.09375
vt 0.29129 0.05625
vt 0.35758 0.09375
vt 0.35758 0.05625
vt 0.35758 0.09375
vt 0.35758 0.05625
vt 0.47008 0.09375
vt 0.47008 0.05625
vt 0.47008 0.09375
vt 0.47008 0.05625
vt 0.53637 0.09375
vt 0.53637 0.05625
vt 0.53637 0.09375
vt 0.53637 0.05625
vt 0.64887 0.09375
vt 0.64887 0.05625
vt 0.64887 0.09375
vt 0.64887 0.05625
vt 0.71517 0.09375
vt 0.71517 0.05625
vt -0.0375 0.30938
vt 0.0375 0.30938
vt 0.06563 0.3375
vt 0.06563 0.4125
vt 0.0375 0.44062
vt -0.0375 0.44062
vt -0.06563 0.4125
vt -0.06563 0.3375
vt -0.0375 0.30938
vt 0.0375 0.30938
vt 0.06563 0.3375
vt 0.06563 0.4125
vt 0.0375 0.44062
vt -0.0375 0.44062
vt -0.06563 0.4125
vt -0.06563 0.3375
vt 0 1.275
vt 0 0.09375
vt 0.075 1.275
vt 0.075 0.09375
vt 0.075 1.275
vt 0.075 0.09375
vt 0.11477 1.275
vt 0.11477 0.09375
vt 0.11477 1.275
vt 0.11477 0.09375
vt 0.18977 1.275
vt 0.18977 0.09375
vt 0.18977 1.275
vt 0.18977 0.09375
vt 0.22955 1.275
vt 0.22955 0.09375
vt 0.22955 1.275
vt 0.22955 0.09375
vt 0.30455 1.275
vt 0.30455 0.09375
vt 0.30455 1.275
vt 0.30455 0.09375
vt 0.34432 1.275
vt 0.34432 0.09375
vt 0.34432 1.275
vt 0.34432 0.09375
vt 0.41932 1.275
vt 0.41932 0.09375
vt 0.41932 1.275
vt 0.41932 0.09375
vt 0.4591 1.275
vt 0.4591 0.09375
vt -0.05625 0.27187
vt 0.05625 0.27187
vt 0.10312 0.31875
vt 0.10312 0.43125
vt 0.05625 0.47813
vt -0.05625 0.47813
vt -0.10312 0.43125
vt -0.10312 0.31875
vt -0.05625 0.27187
vt 0.05625 0.27187
vt 0.10312 0.31875
vt 0.10312 0.43125
vt 0.05625 0.47813
vt -0.05625 0.47813
vt -0.10312 0.43125
vt -0.10312 0.31875
vt 0 1.3125
vt 0 1.275
vt 0.1125 1.3125
vt 0.1125 1.275
vt 0.1125 1.3125
vt 0.1125 1.275
vt 0.17879 1.3125
vt 0.17879 1.275
vt 0.17879 1.3125
vt 0.17879 1.275
vt 0.29129 1.3125
vt 0.29129 1.275
vt 0.29129 1.3125
vt 0.29129 1.275
vt 0.35758 1.3125
vt 0.35758 1.275
vt 0.35758 1.3125
vt 0.35758 1.275
vt 0.47008 1.3125
vt 0.47008 1.275
vt 0.47008 1.3125
vt 0.47008 1.275
vt 0.53637 1.3125
vt 0.53637 1.275
vt 0.53637 1.3125
vt 0.53637 1.275
vt 0.64887 1.3125
vt 0.64887 1.275
vt 0.64887 1.3125
vt 0.64887 1.275
vt 0.71517 1.3125
vt 0.71517 1.275
vt -0.04453 0.29766
vt 0.04453 0.29766
vt 0.07734 0.33047
vt 0.07734 0.41953
vt 0.04453 0.45234
vt -0.04453 0.45234
vt -0.07734 0.41953
vt -0.07734 0.33047
vt -0.04453 0.29766
vt 0.04453 0.29766
vt 0.07734 0.33047
vt 0.07734 0.41953
vt 0.04453 0.45234
vt -0.04453 0.45234
vt -0.07734 0.41953
vt -0.07734 0.33047
vt 0 1.25625
vt 0 1.21875
vt 0.08906 1.25625
vt 0.08906 1.21875
vt 0.08906 1.25625
vt 0.08906 1.21875
vt 0.13547 1.25625
vt 0.13547 1.21875
vt 0.13547 1.25625
vt 0.13547 1.21875
vt 0.22453 1.25625
vt 0.22453 1.21875
vt 0.22453 1.25625
vt 0.22453 1.21875
vt 0.27093 1.25625
vt 0.27093 1.21875
vt 0.27093 1.25625
vt 0.27093 1.21875
vt 0.36 1.25625
vt 0.36 1.21875
vt 0.36 1.25625
vt 0.36 1.21875
vt 0.4064 1.25625
vt 0.4064 1.21875
vt 0.4064 1.25625
vt 0.4064 1.21875
vt 0.49546 1.25625
vt 0.49546 1.21875
vt 0.49546 1.25625
vt 0.49546 1.21875
vt 0.54187 1.25625
vt 0.54187 1.21875
vt 0.06094 0.35625
vt 0.07969 0.35625
vt 0.07969 0.39375
vt 0.06094 0.39375
vt 0.06094 0.35625
vt 0.07969 0.35625
vt 0.07969 0.39375
vt 0.06094 0.39375
vt 0 1.18125
vt 0 0.15
vt 0.01875 1.18125
vt 0.01875 0.15
vt 0.01875 1.18125
vt 0.01875 0.15
vt 0.05625 1.18125
vt 0.05625 0.15
vt 0.05625 1.18125
vt 0.05625 0.15
vt 0.075 1.18125
vt 0.075 0.15
vt 0.075 1.18125
vt 0.075 0.15
vt 0.1125 1.18125
vt 0.1125 0.15
vt -0.07969 0.35625
vt -0.06094 0.35625
vt -0.06094 0.39375
vt -0.07969 0.39375
vt -0.07969 0.35625
vt -0.06094 0.35625
vt -0.06094 0.39375
vt -0.07969 0.39375
vt 0 1.18125
vt 0 0.15
vt 0.01875 1.18125
vt 0.01875 0.15
vt 0.01875 1.18125
vt 0.01875 0.15
vt 0.05625 1.18125
vt 0.05625 0.15
vt 0.05625 1.18125
vt 0.05625 0.15
vt 0.075 1.18125
vt 0.075 0.15
vt 0.075 1.18125
vt 0.075 0.15
vt 0.1125 1.18125
vt 0.1125 0.15
vt -0.01875 0.43594
vt 0.01875 0.43594
vt 0.01875 0.45469
vt -0.01875 0.45469
vt -0.01875 0.43594
vt 0.01875 0.43594
vt 0.01875 0.45469
vt -0.01875 0.45469
vt 0 1.18125
vt 0 0.15
vt 0.0375 1.18125
vt 0.0375 0.15
vt 0.0375 1.18125
vt 0.0375 0.15
vt 0.05625 1.18125
vt 0.05625 0.15
vt 0.05625 1.18125
vt 0.05625 0.15
vt 0.09375 1.18125
vt 0.09375 0.15
vt 0.09375 1.18125
vt 0.09375 0.15
vt 0.1125 1.18125
vt 0.1125 0.15
vt -0.01875 0.29531
vt 0.01875 0.29531
vt 0.01875 0.31406
vt -0.01875 0.31406
vt -0.01875 0.29531
vt 0.01875 0.29531
vt 0.01875 0.31406
vt -0.01875 0.31406
vt 0 1.18125
vt 0 0.15
vt 0.0375 1.18125
vt 0.0375 0.15
vt 0.0375 1.18125
vt 0.0375 0.15
vt 0.05625 1.18125
vt 0.05625 0.15
vt 0.05625 1.18125
vt 0.05625 0.15
vt 0.09375 1.18125
vt 0.09375 0.15
vt 0.09375 1.18125
vt 0.09375 0.15
vt 0.1125 1.18125
vt 0.1125 0.15
vt 1.35 -0.08437
vt 1.44375 -0.08437
vt 1.48125 -0.04687
vt 1.48125 0.04687
vt 1.44375 0.08437
vt 1.35 0.08437
vt 1.3125 0.04687
vt 1.3125 -0.04687
vt 1.35 -0.08437
vt 1.44375 -0.08437
vt 1.48125 -0.04687
vt 1.48125 0.04687
vt 1.44375 0.08437
vt 1.35 0.08437
vt 1.3125 0.04687
vt 1.3125 -0.04687
vt 0 0.46875
vt 0 -0.46875
vt 0.09375 0.46875
vt 0.09375 -0.46875
vt 0.09375 0.46875
vt 0.09375 -0.46875
vt 0.14678 0.46875
vt 0.14678 -0.46875
vt 0.14678 0.46875
vt 0.14678 -0.46875
vt 0.24053 0.46875
vt 0.24053 -0.46875
vt 0.24053 0.46875
vt 0.24053 -0.46875
vt 0.29357 0.46875
vt 0.29357 -0.46875
vt 0.29357 0.46875
vt 0.29357 -0.46875
vt 0.38732 0.46875
vt 0.38732 -0.46875
vt 0.38732 0.46875
vt 0.38732 -0.46875
vt 0.44035 0.46875
vt 0.44035 -0.46875
vt 0.44035 0.46875
vt 0.44035 -0.46875
vt 0.5341 0.46875
vt 0.5341 -0.46875
vt 0.5341 0.46875
vt 0.5341 -0.46875
vt 0.58713 0.46875
vt 0.58713 -0.46875
vt 1.37813 -0.09844
vt 1.41563 -0.09844
vt 1.41563 -0.07969
vt 1.37813 -0.07969
vt 1.37813 -0.09844
vt 1.41563 -0.09844
vt 1.41563 -0.07969
vt 1.37813 -0.07969
vt 0 0.2625
vt 0 -0.2625
vt 0.0375 0.2625
vt 0.0375 -0.2625
vt 0.0375 0.2625
vt 0.0375 -0.2625
vt 0.05625 0.2625
vt 0.05625 -0.2625
vt 0.05625 0.2625
vt 0.05625 -0.2625
vt 0.09375 0.2625
vt 0.09375 -0.2625
vt 0.09375 0.2625
vt 0.09375 -0.2625
vt 0.1125 0.2625
vt 0.1125 -0.2625
vt 1.37813 0.07969
vt 1.41563 0.07969
vt 1.41563 0.09844
vt 1.37813 0.09844
vt 1.37813 0.07969
vt 1.41563 0.07969
vt 1.41563 0.09844
vt 1.37813 0.09844
vt 0 0.2625
vt 0 -0.2625
vt 0.0375 0.2625
vt 0.0375 -0.2625
vt 0.0375 0.2625
vt 0.0375 -0.2625
vt 0.05625 0.2625
vt 0.05625 -0.2625
vt 0.05625 0.2625
vt 0.05625 -0.2625
vt 0.09375 0.2625
vt 0.09375 -0.2625
vt 0.09375 0.2625
vt 0.09375 -0.2625
vt 0.1125 0.2625
vt 0.1125 -0.2625
vt 0 1.74375
vt 0.13125 1.74375
vt 0 1.95
vt 0.13125 1.74375
vt 0 1.74375
vt 0 1.5375
vt 0.13125 1.74375
vt 0 1.74375
vt 0 1.95
vt 0 1.74375
vt 0.13125 1.74375
vt 0 1.5375
vt 0 1.74375
vt -0.13125 1.74375
vt 0 1.95
vt -0.13125 1.74375
vt 0 1.74375
vt 0 1.5375
vt -0.13125 1.74375
vt 0 1.74375
vt 0 1.95
vt 0 1.74375
vt -0.13125 1.74375
vt 0 1.5375
vn 0 1 0
vn 0 -1 0
vn -1 0 0
vn -1 0 0
vn -0.70711 0 0.70711
vn -0.70711 0 0.70711
vn 0 0 1
vn 0 0 1
vn 0.70711 0 0.70711
vn 0.70711 0 0.70711
vn 1 0 0
vn 1 0 0
vn 0.70711 0 -0.70711
vn 0.70711 0 -0.70711
vn 0 0 -1
vn 0 0 -1
vn -0.70711 0 -0.70711
vn -0.70711 0 -0.70711
vn 0 1 0
vn 0 -1 0
vn -1 0 0
vn -1 0 0
vn -0.70711 0 0.70711
vn -0.70711 0 0.70711
vn 0 0 1
vn 0 0 1
vn 0.70711 0 0.70711
vn 0.70711 0 0.70711
vn 1 0 0
vn 1 0 0
vn 0.70711 0 -0.70711
vn 0.70711 0 -0.70711
vn 0 0 -1
vn 0 0 -1
vn -0.70711 0 -0.70711
vn -0.70711 0 -0.70711
vn 0 1 0
vn 0 -1 0
vn -1 0 0
vn -1 0 0
vn -0.70711 0 0.70711
vn -0.70711 0 0.70711
vn 0 0 1
vn 0 0 1
vn 0.70711 0 0.70711
vn 0.70711 0 0.70711
vn 1 0 0
vn 1 0 0
vn 0.70711 0 -0.70711
vn 0.70711 0 -0.70711
vn 0 0 -1
vn 0 0 -1
vn -0.70711 0 -0.70711
vn -0.70711 0 -0.70711
vn 0 1 0
vn 0 -1 0
vn -1 0 0
vn -1 0 0
vn -0.70711 0 0.70711
vn -0.70711 0 0.70711
vn 0 0 1
vn 0 0 1
vn 0.70711 0 0.70711
vn 0.70711 0 0.70711
vn 1 0 0
vn 1 0 0
vn 0.70711 0 -0.70711
vn 0.70711 0 -0.70711
vn 0 0 -1
vn 0 0 -1
vn -0.70711 0 -0.70711
vn -0.70711 0 -0.70711
vn 0 1 0
vn 0 -1 0
vn -1 0 0
vn -1 0 0
vn -0.70711 0 0.70711
vn -0.70711 0 0.70711
vn 0 0 1
vn 0 0 1
vn 0.70711 0 0.70711
vn 0.70711 0 0.70711
vn 1 0 0
vn 1 0 0
vn 0.70711 0 -0.70711
vn 0.70711 0 -0.70711
vn 0 0 -1
vn 0 0 -1
vn -0.70711 0 -0.70711
vn -0.70711 0 -0.70711
vn 0 1 0
vn 0 -1 0
vn -1 0 0
vn -1 0 0
vn 0 0 1
vn 0 0 1
vn 1 0 0
vn 1 0 0
vn 0 0 -1
vn 0 0 -1
vn 0 1 0
vn 0 -1 0
vn -1 0 0
vn -1 0 0
vn 0 0 1
vn 0 0 1
vn 1 0 0
vn 1 0 0
vn 0 0 -1
vn 0 0 -1
vn 0 1 0
vn 0 -1 0
vn -1 0 0
vn -1 0 0
vn 0 0 1
vn 0 0 1
vn 1 0 0
vn 1 0 0
vn 0 0 -1
vn 0 0 -1
vn 0 1 0
vn 0 -1 0
vn -1 0 0
vn -1 0 0
vn 0 0 1
vn 0 0 1
vn 1 0 0
vn 1 0 0
vn 0 0 -1
vn 0 0 -1
vn 0 1 0
vn 0 -1 0
vn -1 0 0
vn -1 0 0
vn -0.70711 0 0.70711
vn -0.70711 0 0.70711
vn 0 0 1
vn 0 0 1
vn 0.70711 0 0.70711
vn 0.70711 0 0.70711
vn 1 0 0
vn 1 0 0
vn 0.70711 0 -0.70711
vn 0.70711 0 -0.70711
vn 0 0 -1
vn 0 0 -1
vn -0.70711 0 -0.70711
vn -0.70711 0 -0.70711
vn 0 1 0
vn 0 -1 0
vn -1 0 0
vn -1 0 0
vn -0.70711 0 0.70711
vn -0.70711 0 0.70711
vn 0 0 1
vn 0 0 1
vn 0.70711 0 0.70711
vn 0.70711 0 0.70711
vn 1 0 0
vn 1 0 0
vn 0.70711 0 -0.70711
vn 0.70711 0 -0.70711
vn 0 0 -1
vn 0 0 -1
vn -0.70711 0 -0.70711
vn -0.70711 0 -0.70711
vn 0 1 0
vn 0 -1 0
vn -1 0 0
vn -1 0 0
vn -0.70711 0 0.70711
vn -0.70711 0 0.70711
vn 0 0 1
vn 0 0 1
vn 0.70711 0 0.70711
vn 0.70711 0 0.70711
vn 1 0 0
vn 1 0 0
vn 0.70711 0 -0.70711
vn 0.70711 0 -0.70711
vn 0 0 -1
vn 0 0 -1
vn -0.70711 0 -0.70711
vn -0.70711 0 -0.70711
vn 0 1 0
vn 0 -1 0
vn -1 0 0
vn -1 0 0
vn -0.70711 0 0.70711
vn -0.70711 0 0.70711
vn 0 0 1
vn 0 0 1
vn 0.70711 0 0.70711
vn 0.70711 0 0.70711
vn 1 0 0
vn 1 0 0
vn 0.70711 0 -0.70711
vn 0.70711 0 -0.70711
vn 0 0 -1
vn 0 0 -1
vn -0.70711 0 -0.70711
vn -0.70711 0 -0.70711
vn 0 1 0
vn 0 -1 0
vn -1 0 0
vn -1 0 0
vn -0.70711 0 0.70711
vn -0.70711 0 0.70711
vn 0 0 1
vn 0 0 1
vn 0.70711 0 0.70711
vn 0.70711 0 0.70711
vn 1 0 0
vn 1 0 0
vn 0.70711 0 -0.70711
vn 0.70711 0 -0.70711
vn 0 0 -1
vn 0 0 -1
vn -0.70711 0 -0.70711
vn -0.70711 0 -0.70711
vn 0 1 0
vn 0 -1 0
vn -1 0 0
vn -1 0 0
vn 0 0 1
vn 0 0 1
vn 1 0 0
vn 1 0 0
vn 0 0 -1
vn 0 0 -1
vn 0 1 0
vn 0 -1 0
vn -1 0 0
vn -1 0 0
vn 0 0 1
vn 0 0 1
vn 1 0 0
vn 1 0 0
vn 0 0 -1
vn 0 0 -1
vn 0 1 0
vn 0 -1 0
vn -1 0 0
vn -1 0 0
vn 0 0 1
vn 0 0 1
vn 1 0 0
vn 1 0 0
vn 0 0 -1
vn 0 0 -1
vn 0 1 0
vn 0 -1 0
vn -1 0 0
vn -1 0 0
vn 0 0 1
vn 0 0 1
vn 1 0 0
vn 1 0 0
vn 0 0 -1
vn 0 0 -1
vn 1 0 0
vn -1 0 0
vn 0 0 -1
vn 0 0 -1
vn 0 0.70711 -0.70711
vn 0 0.70711 -0.70711
vn 0 1 0
vn 0 1 0
vn 0 0.70711 0.70711
vn 0 0.70711 0.70711
vn 0 0 1
vn 0 0 1
vn 0 -0.70711 0.70711
vn 0 -0.70711 0.70711
vn 0 -1 0
vn 0 -1 0
vn 0 -0.70711 -0.70711
vn 0 -0.70711 -0.70711
vn 1 0 0
vn -1 0 0
vn 0 0 -1
vn 0 0 -1
vn 0 1 0
vn 0 1 0
vn 0 0 1
vn 0 0 1
vn 0 -1 0
vn 0 -1 0
vn 1 0 0
vn -1 0 0
vn 0 0 -1
vn 0 0 -1
vn 0 1 0
vn 0 1 0
vn 0 0 1
vn 0 0 1
vn 0 -1 0
vn 0 -1 0
vn 0.64483 0.41035 0.64483
vn 0.64483 -0.41035 0.64483
vn 0.64483 0.41035 -0.64483
vn 0.64483 -0.41035 -0.64483
vn -0.64483 0.41035 -0.64483
vn -0.64483 -0.41035 -0.64483
vn -0.64483 0.41035 0.64483
vn -0.64483 -0.41035 0.64483
usemtl checkpoint_gate_trim
f 7/7/1 8/8/1 1/1/1
f 7/7/1 1/1/1 2/2/1
f 7/7/1 2/2/1 3/3/1
f 7/7/1 3/3/1 4/4/1
f 7/7/1 4/4/1 5/5/1
f 7/7/1 5/5/1 6/6/1
f 15/15/2 9/9/2 16/16/2
f 15/15/2 10/10/2 9/9/2
f 15/15/2 11/11/2 10/10/2
f 15/15/2 12/12/2 11/11/2
f 15/15/2 13/13/2 12/12/2
f 15/15/2 14/14/2 13/13/2
f 18/18/3 20/20/4 19/19/4
f 18/18/3 19/19/4 17/17/3
f 22/22/5 24/24/6 23/23/6
f 22/22/5 23/23/6 21/21/5
f 26/26/7 28/28/8 27/27/8
f 26/26/7 27/27/8 25/25/7
f 30/30/9 32/32/10 31/31/10
f 30/30/9 31/31/10 29/29/9
f 34/34/11 36/36/12 35/35/12
f 34/34/11 35/35/12 33/33/11
f 38/38/13 40/40/14 39/39/14
f 38/38/13 39/39/14 37/37/13
f 42/42/15 44/44/16 43/43/16
f 42/42/15 43/43/16 41/41/15
f 46/46/17 48/48/18 47/47/18
f 46/46/17 47/47/18 45/45/17
f 55/55/19 56/56/19 49/49/19
f 55/55/19 49/49/19 50/50/19
f 55/55/19 50/50/19 51/51/19
f 55/55/19 51/51/19 52/52/19
f 55/55/19 52/52/19 53/53/19
f 55/55/19 53/53/19 54/54/19
f 63/63/20 57/57/20 64/64/20
f 63/63/20 58/58/20 57/57/20
f 63/63/20 59/59/20 58/58/20
f 63/63/20 60/60/20 59/59/20
f 63/63/20 61/61/20 60/60/20
f 63/63/20 62/62/20 61/61/20
f 66/66/21 68/68/22 67/67/22
f 66/66/21 67/67/22 65/65/21
f 70/70/23 72/72/24 71/71/24
f 70/70/23 71/71/24 69/69/23
f 74/74/25 76/76/26 75/75/26
f 74/74/25 75/75/26 73/73/25
f 78/78/27 80/80/28 79/79/28
f 78/78/27 79/79/28 77/77/27
f 82/82/29 84/84/30 83/83/30
f 82/82/29 83/83/30 81/81/29
f 86/86/31 88/88/32 87/87/32
f 86/86/31 87/87/32 85/85/31
f 90/90/33 92/92/34 91/91/34
f 90/90/33 91/91/34 89/89/33
f 94/94/35 96/96/36 95/95/36
f 94/94/35 95/95/36 93/93/35
f 151/151/55 152/152/55 145/145/55
f 151/151/55 145/145/55 146/146/55
f 151/151/55 146/146/55 147/147/55
f 151/151/55 147/147/55 148/148/55
f 151/151/55 148/148/55 149/149/55
f 151/151/55 149/149/55 150/150/55
f 159/159/56 153/153/56 160/160/56
f 159/159/56 154/154/56 153/153/56
f 159/159/56 155/155/56 154/154/56
f 159/159/56 156/156/56 155/155/56
f 159/159/56 157/157/56 156/156/56
f 159/159/56 158/158/56 157/157/56
f 162/162/57 164/164/58 163/163/58
f 162/162/57 163/163/58 161/161/57
f 166/166/59 168/168/60 167/167/60
f 166/166/59 167/167/60 165/165/59
f 170/170/61 172/172/62 171/171/62
f 170/170/61 171/171/62 169/169/61
f 174/174/63 176/176/64 175/175/64
f 174/174/63 175/175/64 173/173/63
f 178/178/65 180/180/66 179/179/66
f 178/178/65 179/179/66 177/177/65
f 182/182/67 184/184/68 183/183/68
f 182/182/67 183/183/68 181/181/67
f 186/186/69 188/188/70 187/187/70
f 186/186/69 187/187/70 185/185/69
f 190/190/71 192/192/72 191/191/72
f 190/190/71 191/191/72 189/189/71
f 343/343/131 344/344/131 337/337/131
f 343/343/131 337/337/131 338/338/131
f 343/343/131 338/338/131 339/339/131
f 343/343/131 339/339/131 340/340/131
f 343/343/131 340/340/131 341/341/131
f 343/343/131 341/341/131 342/342/131
f 351/351/132 345/345/132 352/352/132
f 351/351/132 346/346/132 345/345/132
f 351/351/132 347/347/132 346/346/132
f 351/351/132 348/348/132 347/347/132
f 351/351/132 349/349/132 348/348/132
f 351/351/132 350/350/132 349/349/132
f 354/354/133 356/356/134 355/355/134
f 354/354/133 355/355/134 353/353/133
f 358/358/135 360/360/136 359/359/136
f 358/358/135 359/359/136 357/357/135
f 362/362/137 364/364/138 363/363/138
f 362/362/137 363/363/138 361/361/137
f 366/366/139 368/368/140 367/367/140
f 366/366/139 367/367/140 365/365/139
f 370/370/141 372/372/142 371/371/142
f 370/370/141 371/371/142 369/369/141
f 374/374/143 376/376/144 375/375/144
f 374/374/143 375/375/144 373/373/143
f 378/378/145 380/380/146 379/379/146
f 378/378/145 379/379/146 377/377/145
f 382/382/147 384/384/148 383/383/148
f 382/382/147 383/383/148 381/381/147
f 391/391/149 392/392/149 385/385/149
f 391/391/149 385/385/149 386/386/149
f 391/391/149 386/386/149 387/387/149
f 391/391/149 387/387/149 388/388/149
f 391/391/149 388/388/149 389/389/149
f 391/391/149 389/389/149 390/390/149
f 399/399/150 393/393/150 400/400/150
f 399/399/150 394/394/150 393/393/150
f 399/399/150 395/395/150 394/394/150
f 399/399/150 396/396/150 395/395/150
f 399/399/150 397/397/150 396/396/150
f 399/399/150 398/398/150 397/397/150
f 402/402/151 404/404/152 403/403/152
f 402/402/151 403/403/152 401/401/151
f 406/406/153 408/408/154 407/407/154
f 406/406/153 407/407/154 405/405/153
f 410/410/155 412/412/156 411/411/156
f 410/410/155 411/411/156 409/409/155
f 414/414/157 416/416/158 415/415/158
f 414/414/157 415/415/158 413/413/157
f 418/418/159 420/420/160 419/419/160
f 418/418/159 419/419/160 417/417/159
f 422/422/161 424/424/162 423/423/162
f 422/422/161 423/423/162 421/421/161
f 426/426/163 428/428/164 427/427/164
f 426/426/163 427/427/164 425/425/163
f 430/430/165 432/432/166 431/431/166
f 430/430/165 431/431/166 429/429/165
f 487/487/185 488/488/185 481/481/185
f 487/487/185 481/481/185 482/482/185
f 487/487/185 482/482/185 483/483/185
f 487/487/185 483/483/185 484/484/185
f 487/487/185 484/484/185 485/485/185
f 487/487/185 485/485/185 486/486/185
f 495/495/186 489/489/186 496/496/186
f 495/495/186 490/490/186 489/489/186
f 495/495/186 491/491/186 490/490/186
f 495/495/186 492/492/186 491/491/186
f 495/495/186 493/493/186 492/492/186
f 495/495/186 494/494/186 493/493/186
f 498/498/187 500/500/188 499/499/188
f 498/498/187 499/499/188 497/497/187
f 502/502/189 504/504/190 503/503/190
f 502/502/189 503/503/190 501/501/189
f 506/506/191 508/508/192 507/507/192
f 506/506/191 507/507/192 505/505/191
f 510/510/193 512/512/194 511/511/194
f 510/510/193 511/511/194 509/509/193
f 514/514/195 516/516/196 515/515/196
f 514/514/195 515/515/196 513/513/195
f 518/518/197 520/520/198 519/519/198
f 518/518/197 519/519/198 517/517/197
f 522/522/199 524/524/200 523/523/200
f 522/522/199 523/523/200 521/521/199
f 526/526/201 528/528/202 527/527/202
f 526/526/201 527/527/202 525/525/201
usemtl checkpoint_gate_body
f 103/103/37 104/104/37 97/97/37
f 103/103/37 97/97/37 98/98/37
f 103/103/37 98/98/37 99/99/37
f 103/103/37 99/99/37 100/100/37
f 103/103/37 100/100/37 101/101/37
f 103/103/37 101/101/37 102/102/37
f 111/111/38 105/105/38 112/112/38
f 111/111/38 106/106/38 105/105/38
f 111/111/38 107/107/38 106/106/38
f 111/111/38 108/108/38 107/107/38
f 111/111/38 109/109/38 108/108/38
f 111/111/38 110/110/38 109/109/38
f 114/114/39 116/116/40 115/115/40
f 114/114/39 115/115/40 113/113/39
f 118/118/41 120/120/42 119/119/42
f 118/118/41 119/119/42 117/117/41
f 122/122/43 124/124/44 123/123/44
f 122/122/43 123/123/44 121/121/43
f 126/126/45 128/128/46 127/127/46
f 126/126/45 127/127/46 125/125/45
f 130/130/47 132/132/48 131/131/48
f 130/130/47 131/131/48 129/129/47
f 134/134/49 136/136/50 135/135/50
f 134/134/49 135/135/50 133/133/49
f 138/138/51 140/140/52 139/139/52
f 138/138/51 139/139/52 137/137/51
f 142/142/53 144/144/54 143/143/54
f 142/142/53 143/143/54 141/141/53
f 439/439/167 440/440/167 433/433/167
f 439/439/167 433/433/167 434/434/167
f 439/439/167 434/434/167 435/435/167
f 439/439/167 435/435/167 436/436/167
f 439/439/167 436/436/167 437/437/167
f 439/439/167 437/437/167 438/438/167
f 447/447/168 441/441/168 448/448/168
f 447/447/168 442/442/168 441/441/168
f 447/447/168 443/443/168 442/442/168
f 447/447/168 444/444/168 443/443/168
f 447/447/168 445/445/168 444/444/168
f 447/447/168 446/446/168 445/445/168
f 450/450/169 452/452/170 451/451/170
f 450/450/169 451/451/170 449/449/169
f 454/454/171 456/456/172 455/455/172
f 454/454/171 455/455/172 453/453/171
f 458/458/173 460/460/174 459/459/174
f 458/458/173 459/459/174 457/457/173
f 462/462/175 464/464/176 463/463/176
f 462/462/175 463/463/176 461/461/175
f 466/466/177 468/468/178 467/467/178
f 466/466/177 467/467/178 465/465/177
f 470/470/179 472/472/180 471/471/180
f 470/470/179 471/471/180 469/469/179
f 474/474/181 476/476/182 475/475/182
f 474/474/181 475/475/182 473/473/181
f 478/478/183 480/480/184 479/479/184
f 478/478/183 479/479/184 477/477/183
f 679/679/261 680/680/261 673/673/261
f 679/679/261 673/673/261 674/674/261
f 679/679/261 674/674/261 675/675/261
f 679/679/261 675/675/261 676/676/261
f 679/679/261 676/676/261 677/677/261
f 679/679/261 677/677/261 678/678/261
f 687/687/262 681/681/262 688/688/262
f 687/687/262 682/682/262 681/681/262
f 687/687/262 683/683/262 682/682/262
f 687/687/262 684/684/262 683/683/262
f 687/687/262 685/685/262 684/684/262
f 687/687/262 686/686/262 685/685/262
f 690/690/263 692/692/264 691/691/264
f 690/690/263 691/691/264 689/689/263
f 694/694/265 696/696/266 695/695/266
f 694/694/265 695/695/266 693/693/265
f 698/698/267 700/700/268 699/699/268
f 698/698/267 699/699/268 697/697/267
f 702/702/269 704/704/270 703/703/270
f 702/702/269 703/703/270 701/701/269
f 706/706/271 708/708/272 707/707/272
f 706/706/271 707/707/272 705/705/271
f 710/710/273 712/712/274 711/711/274
f 710/710/273 711/711/274 709/709/273
f 714/714/275 716/716/276 715/715/276
f 714/714/275 715/715/276 713/713/275
f 718/718/277 720/720/278 719/719/278
f 718/718/277 719/719/278 717/717/277
usemtl checkpoint_gate_glow
f 199/199/73 200/200/73 193/193/73
f 199/199/73 193/193/73 194/194/73
f 199/199/73 194/194/73 195/195/73
f 199/199/73 195/195/73 196/196/73
f 199/199/73 196/196/73 197/197/73
f 199/199/73 197/197/73 198/198/73
f 207/207/74 201/201/74 208/208/74
f 207/207/74 202/202/74 201/201/74
f 207/207/74 203/203/74 202/202/74
f 207/207/74 204/204/74 203/203/74
f 207/207/74 205/205/74 204/204/74
f 207/207/74 206/206/74 205/205/74
f 210/210/75 212/212/76 211/211/76
f 210/210/75 211/211/76 209/209/75
f 214/214/77 216/216/78 215/215/78
f 214/214/77 215/215/78 213/213/77
f 218/218/79 220/220/80 219/219/80
f 218/218/79 219/219/80 217/217/79
f 222/222/81 224/224/82 223/223/82
f 222/222/81 223/223/82 221/221/81
f 226/226/83 228/228/84 227/227/84
f 226/226/83 227/227/84 225/225/83
f 230/230/85 232/232/86 231/231/86
f 230/230/85 231/231/86 229/229/85
f 234/234/87 236/236/88 235/235/88
f 234/234/87 235/235/88 233/233/87
f 238/238/89 240/240/90 239/239/90
f 238/238/89 239/239/90 237/237/89
f 243/243/91 244/244/91 241/241/91
f 243/243/91 241/241/91 242/242/91
f 247/247/92 245/245/92 248/248/92
f 247/247/92 246/246/92 245/245/92
f 250/250/93 252/252/94 251/251/94
f 250/250/93 251/251/94 249/249/93
f 254/254/95 256/256/96 255/255/96
f 254/254/95 255/255/96 253/253/95
f 258/258/97 260/260/98 259/259/98
f 258/258/97 259/259/98 257/257/97
f 262/262/99 264/264/100 263/263/100
f 262/262/99 263/263/100 261/261/99
f 267/267/101 268/268/101 265/265/101
f 267/267/101 265/265/101 266/266/101
f 271/271/102 269/269/102 272/272/102
f 271/271/102 270/270/102 269/269/102
f 274/274/103 276/276/104 275/275/104
f 274/274/103 275/275/104 273/273/103
f 278/278/105 280/280/106 279/279/106
f 278/278/105 279/279/106 277/277/105
f 282/282/107 284/284/108 283/283/108
f 282/282/107 283/283/108 281/281/107
f 286/286/109 288/288/110 287/287/110
f 286/286/109 287/287/110 285/285/109
f 291/291/111 292/292/111 289/289/111
f 291/291/111 289/289/111 290/290/111
f 295/295/112 293/293/112 296/296/112
f 295/295/112 294/294/112 293/293/112
f 298/298/113 300/300/114 299/299/114
f 298/298/113 299/299/114 297/297/113
f 302/302/115 304/304/116 303/303/116
f 302/302/115 303/303/116 301/301/115
f 306/306/117 308/308/118 307/307/118
f 306/306/117 307/307/118 305/305/117
f 310/310/119 312/312/120 311/311/120
f 310/310/119 311/311/120 309/309/119
f 315/315/121 316/316/121 313/313/121
f 315/315/121 313/313/121 314/314/121
f 319/319/122 317/317/122 320/320/122
f 319/319/122 318/318/122 317/317/122
f 322/322/123 324/324/124 323/323/124
f 322/322/123 323/323/124 321/321/123
f 326/326/125 328/328/126 327/327/126
f 326/326/125 327/327/126 325/325/125
f 330/330/127 332/332/128 331/331/128
f 330/330/127 331/331/128 329/329/127
f 334/334/129 336/336/130 335/335/130
f 334/334/129 335/335/130 333/333/129
f 535/535/203 536/536/203 529/529/203
f 535/535/203 529/529/203 530/530/203
f 535/535/203 530/530/203 531/531/203
f 535/535/203 531/531/203 532/532/203
f 535/535/203 532/532/203 533/533/203
f 535/535/203 533/533/203 534/534/203
f 543/543/204 537/537/204 544/544/204
f 543/543/204 538/538/204 537/537/204
f 543/543/204 539/539/204 538/538/204
f 543/543/204 540/540/204 539/539/204
f 543/543/204 541/541/204 540/540/204
f 543/543/204 542/542/204 541/541/204
f 546/546/205 548/548/206 547/547/206
f 546/546/205 547/547/206 545/545/205
f 550/550/207 552/552/208 551/551/208
f 550/550/207 551/551/208 549/549/207
f 554/554/209 556/556/210 555/555/210
f 554/554/209 555/555/210 553/553/209
f 558/558/211 560/560/212 559/559/212
f 558/558/211 559/559/212 557/557/211
f 562/562/213 564/564/214 563/563/214
f 562/562/213 563/563/214 561/561/213
f 566/566/215 568/568/216 567/567/216
f 566/566/215 567/567/216 565/565/215
f 570/570/217 572/572/218 571/571/218
f 570/570/217 571/571/218 569/569/217
f 574/574/219 576/576/220 575/575/220
f 574/574/219 575/575/220 573/573/219
f 579/579/221 580/580/221 577/577/221
f 579/579/221 577/577/221 578/578/221
f 583/583/222 581/581/222 584/584/222
f 583/583/222 582/582/222 581/581/222
f 586/586/223 588/588/224 587/587/224
f 586/586/223 587/587/224 585/585/223
f 590/590/225 592/592/226 591/591/226
f 590/590/225 591/591/226 589/589/225
f 594/594/227 596/596/228 595/595/228
f 594/594/227 595/595/228 593/593/227
f 598/598/229 600/600/230 599/599/230
f 598/598/229 599/599/230 597/597/229
f 603/603/231 604/604/231 601/601/231
f 603/603/231 601/601/231 602/602/231
f 607/607/232 605/605/232 608/608/232
f 607/607/232 606/606/232 605/605/232
f 610/610/233 612/612/234 611/611/234
f 610/610/233 611/611/234 609/609/233
f 614/614/235 616/616/236 615/615/236
f 614/614/235 615/615/236 613/613/235
f 618/618/237 620/620/238 619/619/238
f 618/618/237 619/619/238 617/617/237
f 622/622/239 624/624/240 623/623/240
f 622/622/239 623/623/240 621/621/239
f 627/627/241 628/628/241 625/625/241
f 627/627/241 625/625/241 626/626/241
f 631/631/242 629/629/242 632/632/242
f 631/631/242 630/630/242 629/629/242
f 634/634/243 636/636/244 635/635/244
f 634/634/243 635/635/244 633/633/243
f 638/638/245 640/640/246 639/639/246
f 638/638/245 639/639/246 637/637/245
f 642/642/247 644/644/248 643/643/248
f 642/642/247 643/643/248 641/641/247
f 646/646/249 648/648/250 647/647/250
f 646/646/249 647/647/250 645/645/249
f 651/651/251 652/652/251 649/649/251
f 651/651/251 649/649/251 650/650/251
f 655/655/252 653/653/252 656/656/252
f 655/655/252 654/654/252 653/653/252
f 658/658/253 660/660/254 659/659/254
f 658/658/253 659/659/254 657/657/253
f 662/662/255 664/664/256 663/663/256
f 662/662/255 663/663/256 661/661/255
f 666/666/257 668/668/258 667/667/258
f 666/666/257 667/667/258 665/665/257
f 670/670/259 672/672/260 671/671/260
f 670/670/259 671/671/260 669/669/259
f 723/723/279 724/724/279 721/721/279
f 723/723/279 721/721/279 722/722/279
f 727/727/280 725/725/280 728/728/280
f 727/727/280 726/726/280 725/725/280
f 730/730/281 732/732/282 731/731/282
f 730/730/281 731/731/282 729/729/281
f 734/734/283 736/736/284 735/735/284
f 734/734/283 735/735/284 733/733/283
f 738/738/285 740/740/286 739/739/286
f 738/738/285 739/739/286 737/737/285
f 742/742/287 744/744/288 743/743/288
f 742/742/287 743/743/288 741/741/287
f 747/747/289 748/748/289 745/745/289
f 747/747/289 745/745/289 746/746/289
f 751/751/290 749/749/290 752/752/290
f 751/751/290 750/750/290 749/749/290
f 754/754/291 756/756/292 755/755/292
f 754/754/291 755/755/292 753/753/291
f 758/758/293 760/760/294 759/759/294
f 758/758/293 759/759/294 757/757/293
f 762/762/295 764/764/296 763/763/296
f 762/762/295 763/763/296 761/761/295
f 766/766/297 768/768/298 767/767/298
f 766/766/297 767/767/298 765/765/297
f 769/769/299 770/770/299 771/771/299
f 772/772/300 773/773/300 774/774/300
f 775/775/301 776/776/301 777/777/301
f 778/778/302 779/779/302 780/780/302
f 781/781/303 782/782/303 783/783/303
f 784/784/304 785/785/304 786/786/304
f 787/787/305 788/788/305 789/789/305
f 790/790/306 791/791/306 792/792/306
